<?xml version="1.0" standalone="no"?>
<!DOCTYPE svg PUBLIC "-//W3C//DTD SVG 20010904//EN"
 "http://www.w3.org/TR/2001/REC-SVG-20010904/DTD/svg10.dtd">
<svg version="1.0" xmlns="http://www.w3.org/2000/svg"
 width="450.000000pt" height="450.000000pt" viewBox="0 0 450.000000 450.000000"
 preserveAspectRatio="xMidYMid meet">
<metadata>
Created by potrace 1.10, written by Peter Selinger 2001-2011
</metadata>
<g transform="translate(0.000000,450.000000) scale(0.100000,-0.100000)"
fill="#b22222" stroke="none">
<path d="M1965 3844 c-137 -108 -295 -231 -350 -273 -315 -243 -442 -345 -462
-373 -33 -47 -39 -107 -15 -161 11 -24 25 -47 31 -51 6 -4 41 17 78 46 38 30
85 67 106 82 l37 28 0 -36 c0 -35 -1 -36 -41 -36 l-41 0 4 -42 3 -43 -43 -3
-44 -3 6 -82 c9 -123 34 -588 42 -785 4 -95 10 -171 13 -169 88 48 260 108
379 132 116 24 275 17 356 -15 73 -28 148 -100 180 -171 l22 -51 12 40 c19 61
99 143 174 177 52 24 80 30 162 33 54 3 132 -1 175 -8 89 -14 285 -76 359
-114 28 -14 53 -26 54 -26 2 0 4 42 5 93 2 50 10 225 18 387 8 162 18 355 22
428 l6 132 -41 0 -42 0 0 45 0 45 -40 0 c-39 0 -40 1 -40 36 0 42 -5 44 117
-54 51 -40 97 -71 103 -67 20 12 50 84 50 119 0 81 -4 85 -567 523 -293 227
-533 413 -535 413 -2 -1 -115 -89 -253 -196z m496 -29 c128 -99 264 -205 304
-235 332 -254 496 -388 510 -417 8 -17 15 -45 15 -62 0 -30 -18 -81 -29 -81
-6 0 -971 750 -1018 790 -22 19 -22 18 -216 -133 -265 -207 -793 -618 -824
-641 -29 -22 -38 -14 -48 46 -14 84 -11 87 548 521 281 218 515 396 519 395 4
-2 112 -84 239 -183z m51 -253 c161 -125 344 -267 406 -316 74 -58 112 -94
112 -107 0 -15 -21 -2 -92 59 -183 155 -378 312 -378 304 0 -6 235 -205 447
-379 l23 -18 -15 -395 c-8 -217 -15 -400 -15 -406 0 -9 -11 -9 -37 -3 -93 21
-363 6 -435 -25 -16 -7 -15 -5 1 31 28 57 41 165 41 340 l0 157 35 82 c68 159
91 293 59 359 -35 75 -177 113 -300 81 -77 -20 -211 -20 -284 -1 -142 38 -274
-3 -309 -98 -27 -69 -7 -190 54 -332 33 -76 35 -87 35 -195 0 -210 19 -351 57
-422 2 -3 -15 1 -39 10 -35 14 -81 17 -239 17 l-196 0 -13 405 c-7 223 -13
416 -14 429 -1 20 64 75 399 336 220 173 401 314 402 314 2 1 134 -102 295
-227z m-437 -257 c80 -19 222 -19 299 1 73 19 147 13 213 -18 96 -45 97 -154
4 -383 l-41 -99 0 -161 c-1 -167 -16 -289 -44 -343 -19 -38 -31 -45 -55 -37
-22 7 -41 52 -66 155 -21 88 -47 145 -75 162 -26 16 -25 28 0 28 13 0 20 7 20
19 0 11 2 26 5 33 5 11 -10 14 -72 13 -45 -1 -84 4 -93 11 -26 20 -70 26 -70
10 0 -8 -2 -20 -5 -28 -3 -7 6 -25 20 -40 20 -22 36 -28 95 -34 39 -4 73 -11
76 -15 7 -11 -4 -11 -99 5 -43 7 -80 9 -83 5 -2 -4 22 -11 53 -14 32 -4 75
-11 96 -15 21 -4 37 -4 37 1 0 5 4 9 9 9 16 0 50 -83 72 -178 13 -60 29 -103
45 -121 l24 -29 -41 -26 c-80 -53 -147 -143 -164 -221 -6 -26 -3 -24 24 18 33
50 37 62 21 52 -22 -14 -7 9 37 56 51 55 124 96 219 126 48 14 94 18 244 18
102 0 199 -3 216 -7 l31 -7 7 232 c3 128 9 305 13 395 l6 162 30 0 29 0 -6
-92 c-3 -51 -10 -201 -16 -333 -5 -132 -12 -285 -16 -341 l-6 -101 -36 13
c-71 24 -198 46 -298 51 -120 7 -213 -8 -299 -47 -60 -28 -145 -93 -145 -112
0 -5 16 4 35 21 49 42 118 76 190 92 123 26 336 9 497 -41 35 -11 67 -19 72
-20 10 0 11 9 26 370 5 140 13 299 16 353 6 95 7 97 31 97 l26 0 -7 -107 c-3
-60 -11 -207 -16 -328 -19 -434 -22 -475 -34 -467 -22 17 -146 62 -242 87
-118 31 -292 43 -372 26 -122 -26 -212 -95 -265 -202 l-25 -49 -26 54 c-49
100 -138 168 -255 196 -126 30 -363 -6 -556 -83 l-85 -34 0 86 c0 76 -25 687
-33 784 -2 34 0 37 23 37 l27 0 12 -277 c6 -153 15 -339 18 -414 l6 -137 33
14 c53 22 191 52 298 63 187 21 335 -13 430 -99 29 -27 56 -47 59 -44 3 3 8 0
13 -7 4 -8 3 -10 -4 -5 -17 10 -15 5 18 -55 16 -30 29 -49 29 -44 -1 21 -44
130 -50 125 -3 -3 -33 20 -67 52 -66 60 -123 87 -231 109 -81 16 -257 6 -371
-21 -47 -11 -96 -23 -110 -26 l-26 -6 -17 414 c-10 227 -17 421 -17 431 0 12
8 17 28 17 l29 0 2 -107 c2 -145 21 -676 24 -679 1 -1 25 2 52 6 28 5 110 9
183 9 224 1 365 -41 462 -138 27 -28 50 -45 50 -40 0 17 -113 124 -147 139
l-31 14 23 28 c13 15 29 53 35 85 6 32 13 63 15 68 5 16 43 -77 56 -134 6 -29
8 -63 5 -76 -3 -13 -2 -27 4 -30 5 -3 10 -2 10 4 0 6 7 60 15 121 9 61 13 119
10 129 -8 26 18 46 35 26 10 -12 10 -18 0 -30 -7 -8 -21 -66 -31 -128 -22
-133 -22 -130 -9 -122 6 3 10 15 10 27 0 28 52 117 94 160 35 36 35 36 26 98
-5 34 -11 64 -13 66 -2 3 -39 11 -81 18 l-77 13 -23 -31 c-24 -31 -43 -81 -71
-188 -14 -54 -36 -88 -55 -88 -17 0 -47 41 -58 79 -16 53 -33 265 -31 386 1
95 0 104 -34 175 -61 132 -82 256 -53 323 35 84 144 115 281 82z m116 -641
c19 -3 47 -5 63 -5 42 2 59 -16 38 -38 -13 -13 -25 -15 -52 -10 -19 5 -36 8
-37 9 -2 0 -17 0 -34 0 -27 0 -30 2 -19 15 11 13 10 14 -3 10 -18 -8 -31 10
-23 32 5 12 9 13 20 4 8 -7 29 -14 47 -17z m22 -139 c44 -7 47 -9 48 -39 0
-17 2 -41 3 -54 2 -14 -6 -30 -20 -41 -13 -10 -21 -21 -18 -24 3 -3 0 -8 -7
-13 -7 -4 -10 -3 -5 4 3 5 1 12 -6 14 -9 3 -8 15 6 47 19 42 19 42 -2 63 -20
20 -22 21 -47 4 -22 -14 -26 -23 -22 -46 3 -15 2 -40 -2 -56 -8 -26 -9 -27
-16 -9 -5 11 -17 31 -29 44 -12 14 -15 21 -6 16 12 -6 13 -5 3 6 -16 16 -17
33 -1 23 6 -4 8 -3 5 4 -4 5 1 24 10 41 13 23 23 30 38 27 11 -3 41 -8 68 -11z
m-16 -187 c-3 -8 -6 -5 -6 6 -1 11 2 17 5 13 3 -3 4 -12 1 -19z m-274 -203
c43 -5 133 -42 124 -52 -4 -3 -12 -1 -19 4 -15 12 -117 32 -173 34 -62 2 -170
-11 -222 -26 -25 -8 -50 -12 -54 -9 -5 2 -17 0 -29 -6 -11 -5 -29 -15 -40 -20
-12 -6 -25 -8 -30 -5 -6 4 -10 1 -10 -5 0 -6 -8 -10 -17 -9 -31 3 -44 -1 -39
-10 4 -5 -2 -8 -11 -7 -10 2 -21 -2 -25 -7 -4 -8 -14 -7 -30 0 -22 10 -22 11
-3 18 11 3 32 13 48 21 15 8 27 13 27 9 0 -3 14 2 31 11 17 9 42 14 55 11 13
-2 21 -1 19 3 -3 4 8 10 23 13 15 3 54 12 88 20 33 7 83 13 111 13 28 -1 49 3
45 8 -3 5 15 6 44 2 27 -4 66 -9 87 -11z m822 1 c58 -4 117 -17 140 -29 11 -6
28 -10 39 -8 12 2 16 -1 10 -10 -5 -9 -2 -10 10 -6 11 4 38 -3 68 -18 27 -14
58 -25 68 -25 23 0 68 -36 57 -46 -4 -4 -28 3 -55 15 -26 12 -54 23 -62 25 -8
1 -25 7 -36 14 -12 6 -24 8 -28 5 -3 -3 -6 -1 -6 6 0 8 -7 10 -21 6 -16 -5
-19 -4 -14 5 5 8 4 11 -2 7 -6 -4 -32 0 -59 7 -75 22 -138 31 -241 36 -29 2
-53 7 -53 12 0 4 -4 8 -10 8 -5 0 -7 -7 -4 -15 4 -8 1 -15 -4 -15 -17 0 -26
21 -13 29 11 7 118 5 216 -3z m-231 -12 c5 -12 2 -15 -10 -10 -9 4 -22 2 -29
-4 -6 -5 -20 -11 -31 -13 -11 -1 -38 -13 -59 -25 l-40 -22 34 27 c18 15 54 35
80 44 25 9 47 17 47 18 1 0 5 -6 8 -15z m-414 -72 c0 -1 -9 2 -20 8 -11 6 -20
15 -20 20 0 6 9 2 20 -7 11 -10 20 -19 20 -21z m-766 -38 c18 -7 12 -24 -10
-24 -8 0 -14 7 -14 15 0 17 2 18 24 9z"/>
<path d="M1835 3459 c-315 -246 -362 -285 -338 -278 36 11 684 530 661 529 -2
0 -147 -113 -323 -251z"/>
<path d="M2580 3442 c0 -5 20 -23 45 -41 25 -18 45 -28 45 -23 0 5 -20 23 -45
41 -25 18 -45 28 -45 23z"/>
<path d="M1436 2980 c6 -190 18 -347 29 -358 11 -12 13 6 5 43 -5 22 -14 139
-20 260 -14 280 -21 308 -14 55z"/>
<path d="M2990 2939 c0 -105 -12 -301 -25 -409 -4 -37 -3 -41 5 -21 20 47 44
520 27 537 -4 4 -7 -44 -7 -107z"/>
<path d="M2950 2753 c0 -37 -3 -86 -6 -108 -4 -27 -2 -35 4 -25 12 19 21 189
10 196 -4 3 -8 -25 -8 -63z"/>
<path d="M2165 3261 c-71 -30 -109 -166 -66 -237 52 -85 299 -103 341 -25 14
26 13 31 -6 31 -16 0 -46 -25 -39 -32 3 -3 -2 -5 -10 -5 -10 0 -12 4 -6 10 5
5 6 19 2 31 -18 46 27 96 54 60 16 -22 14 -27 -9 -18 -9 3 -13 11 -9 18 4 6
-1 5 -10 -3 -9 -7 -17 -19 -17 -25 0 -6 5 -4 10 4 8 12 10 12 10 -5 0 -21 55
-45 104 -45 14 0 28 -4 31 -10 7 -12 65 -13 65 -2 0 11 -45 32 -68 32 -9 1
-30 9 -47 18 -23 13 -30 25 -32 51 -2 41 -15 55 -45 48 -47 -12 -80 -115 -53
-169 7 -16 9 -28 5 -28 -14 0 -30 35 -30 64 0 14 -4 26 -9 26 -5 0 -8 -12 -5
-26 3 -16 1 -23 -6 -19 -6 4 -7 -2 -1 -17 8 -22 7 -23 -40 -22 -29 1 -62 10
-84 23 -20 11 -33 15 -30 9 4 -7 -7 2 -24 20 -17 18 -31 40 -32 50 -5 84 11
125 62 157 30 20 43 22 68 15 36 -10 36 -10 57 -10 9 0 12 -5 8 -12 -4 -7 -3
-8 4 -4 15 9 72 -21 72 -38 0 -7 -7 -19 -15 -26 -8 -7 -15 -21 -15 -32 0 -12
-4 -17 -12 -12 -7 4 -8 3 -4 -4 4 -7 3 -12 -3 -12 -6 0 -7 -8 -4 -17 5 -14 10
-10 23 20 20 44 48 77 67 77 26 0 12 16 -40 48 -81 49 -158 65 -212 43z"/>
<path d="M2390 3040 c0 -5 5 -10 11 -10 5 0 7 5 4 10 -3 6 -8 10 -11 10 -2 0
-4 -4 -4 -10z"/>
<path d="M2147 2943 c-3 -10 -8 -40 -12 -66 -4 -27 -9 -59 -11 -70 -15 -67
-16 -65 23 -78 21 -7 72 -16 113 -19 l75 -7 -75 -3 c-62 -2 -68 -4 -35 -9 22
-3 57 -4 77 -2 31 2 38 7 37 25 0 11 2 35 5 51 5 32 18 144 18 160 0 6 -13 9
-30 7 -28 -3 -137 13 -167 24 -7 3 -15 -3 -18 -13z m43 -11 c0 -4 10 -8 23 -9
92 -4 112 -9 112 -29 0 -10 5 -23 10 -27 7 -6 6 -10 -1 -13 -5 -2 -9 -18 -8
-34 l2 -30 -72 4 c-97 5 -104 9 -98 54 2 20 5 45 5 55 1 9 5 17 10 17 4 0 5 5
2 10 -3 6 -1 10 4 10 6 0 11 -4 11 -8z m26 -153 c24 -6 59 -9 79 -7 19 2 35 0
35 -5 0 -15 -121 -2 -160 16 -19 10 -27 15 -16 12 10 -3 38 -10 62 -16z m-49
-10 c15 -7 60 -15 98 -20 l70 -8 -75 3 c-46 2 -87 9 -105 19 -35 19 -29 22 12
6z m-10 -20 c15 -6 60 -15 98 -19 l70 -9 -70 3 c-38 1 -86 10 -105 18 -40 19
-35 23 7 7z"/>
<path d="M2115 2722 c6 -5 24 -12 40 -16 34 -7 15 7 -25 19 -16 5 -22 4 -15
-3z"/>
<path d="M2618 2133 c7 -3 16 -2 19 1 4 3 -2 6 -13 5 -11 0 -14 -3 -6 -6z"/>
<path d="M2300 4030 c-9 -6 -10 -10 -3 -10 6 0 15 5 18 10 8 12 4 12 -15 0z"/>
<path d="M2756 3668 c3 -5 10 -6 15 -3 13 9 11 12 -6 12 -8 0 -12 -4 -9 -9z"/>
<path d="M1287 3353 c-86 -69 -155 -128 -153 -131 3 -2 71 49 153 113 167 132
181 145 167 145 -5 0 -80 -57 -167 -127z"/>
<path d="M1080 1610 l0 -180 69 0 c71 0 120 12 133 33 11 18 10 265 -2 287
-13 24 -69 40 -142 40 l-58 0 0 -180z m90 138 c0 -5 -6 -11 -12 -13 -10 -4
-12 -33 -10 -110 2 -58 0 -105 -5 -105 -4 0 -8 -11 -8 -24 0 -18 3 -22 13 -14
8 7 12 7 12 -2 0 -14 53 -4 58 11 2 5 7 7 10 5 4 -2 6 42 5 99 -1 98 -11 140
-37 157 -7 5 -3 8 8 8 10 0 25 -8 33 -17 8 -10 11 -12 7 -4 -4 8 -3 12 3 8 7
-5 18 -175 14 -234 -2 -34 -5 -42 -13 -37 -4 3 -8 1 -8 -3 0 -5 -30 -8 -67 -8
l-67 0 1 130 c1 72 2 138 2 148 1 13 8 17 31 15 17 -1 30 -6 30 -10z m25 -138
c0 -82 -3 -114 -12 -117 -10 -4 -13 24 -13 117 0 93 3 121 13 118 9 -4 12 -36
12 -118z"/>
<path d="M1320 1610 l0 -180 80 0 80 0 0 38 c0 38 0 38 -35 34 -35 -4 -35 -4
-35 37 0 39 2 41 30 41 28 0 30 3 30 36 0 35 -1 36 -30 31 -29 -6 -30 -6 -30
34 0 40 1 40 32 37 31 -3 32 -1 33 35 l2 37 -79 0 -78 0 0 -180z m120 140 c0
-5 -3 -9 -7 -8 -5 0 -15 -2 -24 -6 -21 -9 -25 -89 -5 -106 14 -11 14 -15 1
-33 -16 -23 -20 -84 -7 -105 5 -7 19 -14 32 -17 42 -8 33 -14 -23 -14 l-56 0
0 142 c0 77 2 144 5 149 7 12 84 10 84 -2z"/>
<path d="M1510 1610 l0 -180 41 0 42 0 -7 80 c-4 52 -3 80 4 80 5 0 10 -9 10
-20 0 -11 7 -47 17 -80 16 -60 16 -60 55 -60 l38 0 0 180 0 180 -35 0 -35 0 0
-82 c-1 -92 -7 -89 -35 15 l-17 67 -39 0 -39 0 0 -180z m55 136 c7 -7 17 -30
20 -50 4 -20 16 -48 27 -62 20 -24 21 -25 34 -6 7 11 14 37 15 58 2 48 8 74
17 74 4 0 7 -53 6 -117 -2 -177 -2 -183 -18 -183 -16 0 -24 16 -21 47 1 12 -3
19 -8 16 -6 -4 -7 5 -3 23 5 21 4 25 -4 14 -8 -13 -10 -13 -10 2 0 9 -7 24
-16 32 -12 13 -18 13 -29 3 -7 -6 -13 -14 -13 -17 2 -50 -4 -120 -11 -120 -12
0 -18 72 -9 107 4 15 4 29 0 30 -4 2 -6 31 -5 65 1 46 5 62 15 60 10 -3 11 -1
1 9 -14 14 -17 29 -7 29 3 0 12 -6 19 -14z"/>
<path d="M1730 1755 c0 -32 2 -35 31 -35 l30 0 -3 -145 -3 -145 48 0 47 0 0
146 0 146 25 -4 c23 -5 25 -2 25 33 l0 39 -100 0 -100 0 0 -35z m156 -10 c-11
-8 -23 -15 -26 -15 -8 0 -8 4 -10 -147 -1 -113 -3 -123 -21 -123 -17 0 -19 10
-21 133 -3 126 -4 132 -25 142 -40 17 -25 25 50 25 65 -1 70 -2 53 -15z"/>
<path d="M1979 1761 c-29 -29 -29 -30 -29 -151 0 -121 0 -122 29 -151 24 -24
38 -29 76 -29 38 0 52 5 76 29 29 29 29 31 29 146 0 156 -16 184 -103 185 -41
0 -53 -5 -78 -29z m77 -3 c4 -7 3 -8 -4 -4 -7 4 -12 2 -12 -4 0 -6 -5 -8 -10
-5 -8 5 -10 -39 -9 -134 0 -78 5 -141 10 -141 5 0 9 -4 9 -9 0 -5 -9 -7 -19
-4 -15 4 -19 12 -16 34 2 16 0 27 -5 24 -5 -3 -6 -13 -3 -22 4 -10 2 -14 -4
-10 -7 4 -11 52 -12 126 0 123 4 137 49 154 8 3 16 6 17 6 1 1 5 -4 9 -11z
m70 -34 c-3 -8 -2 -14 2 -14 13 0 8 -203 -5 -225 -7 -11 -13 -16 -13 -12 0 5
-7 1 -16 -7 -8 -9 -23 -16 -32 -15 -14 0 -13 2 3 8 19 8 19 8 -3 20 -22 12
-23 16 -20 133 2 86 7 123 16 126 9 3 12 -27 12 -128 0 -94 3 -131 11 -128 8
3 11 36 10 102 -2 63 2 103 10 112 8 10 8 14 0 14 -6 0 -10 3 -9 8 1 4 -4 17
-11 30 l-12 23 31 -16 c20 -10 30 -22 26 -31z"/>
<path d="M1995 1731 c-3 -5 -2 -12 3 -15 5 -3 9 1 9 9 0 17 -3 19 -12 6z"/>
<path d="M2330 1610 l0 -180 70 0 70 0 0 39 c0 35 -2 38 -25 33 l-25 -4 0 146
0 146 -45 0 -45 0 0 -180z m51 148 c1 -2 4 -61 8 -133 6 -122 7 -131 29 -140
12 -5 22 -13 22 -17 0 -13 -78 -9 -82 5 -8 24 4 287 13 287 5 0 10 -1 10 -2z"/>
<path d="M2490 1610 l0 -180 80 0 80 0 0 38 c0 38 0 38 -35 34 -35 -4 -35 -4
-35 37 0 39 2 41 30 41 28 0 30 3 30 36 0 35 -1 36 -30 31 -29 -6 -30 -6 -30
34 0 40 1 40 32 37 31 -3 32 -1 34 35 l3 37 -80 0 -79 0 0 -180z m113 138 c-2
-5 -10 -8 -18 -8 -16 0 -25 -22 -25 -60 0 -43 10 -60 34 -60 20 0 19 -1 -4
-13 -20 -10 -26 -21 -28 -60 -3 -43 -1 -48 30 -67 l33 -20 -52 0 -53 0 0 150
0 150 44 -2 c24 -2 42 -6 39 -10z"/>
<path d="M2706 1778 c-2 -7 -12 -74 -21 -148 -9 -74 -19 -150 -22 -167 l-5
-33 46 0 c46 0 46 0 46 35 0 31 3 35 25 35 22 0 25 -4 25 -35 0 -35 0 -35 46
-35 38 0 45 3 40 18 -2 9 -15 90 -27 180 l-23 162 -64 0 c-41 0 -64 -4 -66
-12z m109 -63 c0 -22 4 -46 9 -53 4 -7 6 -16 3 -19 -3 -3 -1 -17 5 -32 5 -14
12 -54 15 -88 4 -52 2 -63 -10 -63 -8 0 -17 9 -20 20 -3 10 0 18 5 17 6 -1 12
4 14 11 1 7 0 8 -2 3 -3 -6 -12 -7 -20 -4 -7 3 -11 9 -8 14 3 5 0 9 -6 9 -7 0
-5 7 4 16 9 8 14 25 12 37 -3 12 -8 42 -11 67 -3 25 -10 52 -16 60 -7 11 -9
-11 -4 -73 6 -82 5 -88 -12 -85 -10 2 -17 8 -17 14 1 5 4 41 8 79 5 65 5 68
-9 44 -8 -15 -16 -49 -19 -78 -3 -28 -8 -56 -12 -62 -4 -7 -3 -9 3 -6 6 4 19
-1 29 -9 16 -14 17 -15 2 -10 -10 3 -17 2 -16 -2 3 -17 -23 -62 -37 -62 -18 0
-18 2 0 70 8 30 14 64 14 75 0 20 0 20 -9 0 -6 -14 -9 -15 -9 -4 -1 8 4 20 10
26 6 6 12 35 14 64 1 30 3 58 4 62 0 5 20 7 44 5 42 -3 42 -3 42 -43z"/>
<path d="M2907 1613 l2 -178 47 -3 46 -3 -3 85 c-3 55 0 85 6 83 6 -2 11 -40
13 -85 l3 -82 44 0 45 0 0 71 c0 76 -11 109 -38 109 -14 1 -14 2 3 12 28 16
35 28 35 65 0 76 -38 103 -150 103 l-55 0 2 -177z m93 135 c0 -5 -7 -11 -15
-14 -21 -8 -21 -92 0 -100 13 -5 13 -8 0 -27 -9 -14 -15 -45 -15 -84 0 -54 -3
-63 -18 -63 -17 0 -19 11 -18 150 l1 150 33 -2 c17 -1 32 -6 32 -10z m64 -4
c19 -19 22 -84 4 -84 -10 0 -9 -3 1 -9 11 -7 9 -10 -7 -16 -24 -7 -25 -24 -1
-42 18 -13 26 -117 10 -127 -15 -9 -19 4 -22 64 -1 42 -7 59 -23 72 l-21 17
23 21 c21 20 30 69 15 84 -10 10 -12 36 -3 36 5 0 16 -7 24 -16z m-46 -56 c-4
-58 -25 -61 -26 -3 0 33 4 45 14 45 12 0 14 -10 12 -42z"/>
<path d="M3140 1610 l0 -180 41 0 42 0 -5 85 c-2 47 -2 82 1 79 3 -3 15 -40
26 -82 l20 -77 43 -3 42 -3 0 180 0 181 -41 0 -40 0 2 -75 c1 -41 -1 -78 -4
-82 -4 -3 -7 0 -7 7 0 7 -9 44 -20 81 l-21 69 -39 0 -40 0 0 -180z m82 90 c10
-30 23 -59 28 -64 13 -13 42 -17 34 -5 -3 5 0 9 5 9 7 0 11 25 11 61 0 34 4
58 9 54 5 -3 9 -70 9 -150 -1 -113 -4 -145 -14 -145 -7 0 -19 10 -25 23 -7 12
-11 22 -9 22 10 0 -24 75 -40 90 -19 17 -20 17 -30 -9 -5 -15 -10 -48 -10 -72
0 -25 -4 -43 -8 -40 -5 3 -9 69 -10 146 -1 125 1 141 15 138 9 -2 24 -26 35
-58z"/>
<path d="M2190 1580 c0 -30 1 -30 55 -30 54 0 55 0 55 30 0 30 -1 30 -55 30
-54 0 -55 0 -55 -30z"/>
<path d="M1060 1380 c0 -7 392 -10 1155 -10 763 0 1155 3 1155 10 0 7 -392 10
-1155 10 -763 0 -1155 -3 -1155 -10z"/>
<path d="M830 1320 c0 -5 20 -10 45 -10 l44 0 4 -107 3 -108 2 108 2 107 46 0
c27 0 43 4 39 10 -3 6 -46 10 -96 10 -53 0 -89 -4 -89 -10z"/>
<path d="M1040 1214 c0 -82 3 -113 11 -108 7 4 9 25 7 55 -5 45 -3 49 16 49
16 0 27 -14 45 -55 13 -31 26 -53 29 -50 3 3 -5 28 -18 55 l-24 51 22 15 c34
23 30 70 -8 89 -16 8 -40 15 -55 15 l-25 0 0 -116z m84 80 c9 -8 16 -20 16
-26 0 -21 -33 -48 -59 -48 -25 0 -27 4 -29 45 -2 43 -1 45 28 45 15 0 36 -7
44 -16z"/>
<path d="M1290 1283 c-12 -26 -31 -70 -42 -98 -12 -27 -25 -54 -30 -59 -10
-13 -10 -26 1 -26 4 0 18 23 29 50 21 49 21 50 65 50 44 0 45 0 66 -52 12 -28
24 -49 27 -46 4 5 -80 213 -91 226 -2 2 -13 -18 -25 -45z m60 -67 c0 0 -16 -1
-35 -1 -40 0 -41 2 -18 49 l16 35 19 -40 c10 -23 18 -42 18 -43z"/>
<path d="M1464 1215 c0 -66 1 -92 3 -57 2 34 2 88 0 120 -2 31 -3 3 -3 -63z"/>
<path d="M1536 1222 c1 -140 7 -151 13 -29 l6 98 79 -93 c44 -51 83 -97 88
-103 4 -5 8 46 8 114 0 88 -3 120 -11 115 -8 -5 -10 -37 -7 -101 l5 -94 -43
48 c-23 26 -62 71 -86 100 -24 29 -45 52 -48 53 -3 0 -5 -48 -4 -108z"/>
<path d="M1790 1215 c0 -70 4 -115 10 -115 6 0 10 45 10 115 0 70 -4 115 -10
115 -6 0 -10 -45 -10 -115z"/>
<path d="M1860 1218 c0 -143 18 -160 22 -22 l3 96 67 -79 c37 -44 76 -91 87
-104 l20 -24 1 123 c0 75 -4 122 -10 122 -6 0 -10 -39 -10 -97 l0 -98 -58 65
c-31 36 -72 81 -89 100 l-32 35 -1 -117z"/>
<path d="M2144 1296 c-29 -29 -34 -41 -34 -81 0 -40 5 -52 34 -81 26 -26 43
-34 69 -34 58 0 67 7 67 56 0 43 -1 44 -32 43 -31 -2 -31 -2 -5 -6 23 -4 27
-9 27 -38 0 -29 -4 -34 -28 -40 -93 -20 -157 101 -91 171 27 28 79 40 108 25
12 -7 21 -8 21 -2 0 13 -26 21 -67 21 -26 0 -43 -8 -69 -34z"/>
<path d="M2479 1315 c-65 -36 -74 -134 -17 -187 26 -25 38 -29 76 -26 26 2 47
9 50 16 3 10 -2 10 -21 1 -89 -40 -173 96 -103 166 31 31 70 41 103 26 19 -9
24 -9 21 1 -6 18 -78 20 -109 3z"/>
<path d="M2640 1215 l0 -115 70 0 c40 0 70 4 70 10 0 6 -27 10 -60 10 l-60 0
0 44 0 45 53 4 52 3 -52 2 -53 2 0 45 0 45 60 0 c33 0 60 4 60 10 0 6 -30 10
-70 10 l-70 0 0 -115z"/>
<path d="M2830 1218 c0 -143 18 -160 22 -22 l3 96 70 -82 c39 -45 78 -92 87
-104 17 -20 18 -16 18 102 0 80 -4 122 -11 122 -7 0 -9 -34 -7 -101 l3 -100
-55 63 c-30 35 -72 81 -92 103 l-37 40 -1 -117z"/>
<path d="M3060 1320 c0 -5 18 -10 40 -10 l40 0 0 -105 c0 -63 4 -105 10 -105
6 0 10 42 10 105 l0 105 40 0 c22 0 40 5 40 10 0 6 -37 10 -90 10 -53 0 -90
-4 -90 -10z"/>
<path d="M3260 1215 l0 -115 70 0 c40 0 70 4 70 10 0 6 -28 10 -65 10 l-65 0
0 45 0 44 58 4 57 3 -57 2 -58 2 0 45 0 45 60 0 c33 0 60 4 60 10 0 6 -28 10
-65 10 l-65 0 0 -115z"/>
<path d="M3462 1213 c1 -65 3 -92 5 -60 3 49 7 57 24 57 14 0 26 -16 44 -57
14 -31 28 -54 31 -51 3 4 -5 29 -17 58 l-22 51 22 15 c46 32 4 104 -60 104
l-29 0 2 -117z m76 85 c31 -31 3 -78 -47 -78 -18 0 -21 6 -21 45 0 43 1 45 28
45 15 0 33 -5 40 -12z"/>
<path d="M652 1029 c-25 -13 -54 -39 -70 -63 -36 -52 -63 -124 -51 -132 5 -3
9 1 9 9 0 8 14 41 30 74 36 72 88 113 143 113 20 0 37 5 37 10 0 17 -53 11
-98 -11z"/>
<path d="M3743 1003 c4 -3 21 -8 37 -10 69 -7 125 -58 156 -140 21 -58 39 -81
28 -38 -18 79 -66 145 -126 176 -34 18 -110 27 -95 12z"/>
<path d="M780 986 c-30 -7 -70 -20 -88 -30 -56 -29 -93 -112 -77 -173 l6 -27
54 59 54 60 37 -35 c21 -19 45 -41 53 -49 29 -27 145 -98 221 -136 229 -115
546 -196 885 -225 155 -13 516 -13 670 1 516 44 929 183 1137 382 l36 36 52
-55 c28 -30 53 -54 56 -54 2 0 4 20 4 44 0 107 -57 166 -182 185 -26 5 -48 7
-48 5 0 -2 21 -24 47 -50 l46 -48 -44 -39 c-172 -154 -458 -271 -809 -332
-241 -42 -699 -58 -975 -35 -333 29 -699 126 -895 238 -69 40 -181 118 -224
157 l-40 35 49 50 c27 28 45 50 40 49 -6 0 -35 -6 -65 -13z m-26 -48 c-16 -29
-37 -47 -47 -41 -5 3 -7 1 -4 -4 6 -10 -52 -67 -60 -60 -11 12 25 72 55 92 39
27 68 33 56 13z m3035 -32 c13 -11 21 -15 17 -8 -4 6 -5 12 -2 12 9 0 40 -63
44 -90 3 -24 3 -24 -12 -5 -8 11 -12 24 -9 29 4 5 1 6 -5 2 -12 -7 -72 40 -72
56 0 6 -8 17 -17 24 -16 12 -15 12 7 7 14 -3 36 -15 49 -27z"/>
<path d="M1000 898 c0 -44 -6 -70 -21 -95 -15 -24 -18 -38 -11 -45 7 -7 16 1
30 28 15 28 36 47 76 69 35 18 52 33 46 39 -6 6 -24 -1 -49 -17 -22 -15 -43
-27 -47 -27 -3 0 -4 22 -2 50 2 33 -1 51 -9 55 -10 3 -13 -12 -13 -57z"/>
<path d="M3460 853 c-24 -8 -40 -34 -40 -63 0 -29 40 -80 62 -80 22 0 79 40
73 50 -4 6 -18 1 -34 -11 -23 -17 -32 -19 -50 -10 -11 7 -21 13 -21 15 0 2 21
16 47 32 l47 27 -28 23 c-28 25 -31 26 -56 17z m39 -27 c10 -12 7 -18 -18 -30
-38 -20 -41 -20 -41 4 0 10 8 24 18 29 23 14 28 13 41 -3z"/>
<path d="M1083 805 c-34 -24 -40 -72 -12 -101 29 -31 69 -31 97 -1 60 64 -14
152 -85 102z m81 -28 c18 -28 -12 -72 -49 -72 -26 0 -30 4 -33 31 -5 56 54 86
82 41z"/>
<path d="M3215 800 c-4 -6 -3 -16 3 -22 6 -6 12 -6 17 2 4 6 3 16 -3 22 -6 6
-12 6 -17 -2z"/>
<path d="M3345 798 c-49 -26 -58 -69 -24 -112 23 -29 64 -35 95 -12 25 19 13
30 -18 15 -39 -17 -68 3 -68 47 0 30 4 37 30 45 17 6 30 15 30 20 0 12 -20 11
-45 -3z"/>
<path d="M1229 743 c-6 -16 -13 -44 -16 -65 -5 -30 -2 -38 17 -48 12 -6 31
-10 41 -7 10 3 19 1 19 -4 0 -5 4 -9 9 -9 5 0 17 24 27 53 9 28 19 58 22 65 2
6 -2 12 -10 12 -9 0 -21 -20 -29 -47 -12 -39 -20 -49 -41 -51 -34 -4 -41 17
-23 69 18 49 18 59 5 59 -6 0 -15 -12 -21 -27z"/>
<path d="M3139 763 c-1 -5 -1 -16 0 -25 1 -10 -3 -18 -8 -18 -6 0 -11 -5 -11
-11 0 -6 6 -9 14 -6 10 4 18 -8 26 -39 7 -24 18 -49 26 -55 16 -13 46 -8 52
10 3 9 -1 11 -16 7 -17 -6 -22 1 -36 40 -20 58 -20 54 4 54 11 0 20 5 20 11 0
7 -10 9 -25 5 -20 -5 -25 -3 -25 14 0 18 -19 30 -21 13z"/>
<path d="M3236 751 c-8 -13 33 -131 45 -131 13 0 11 20 -7 76 -19 56 -29 70
-38 55z"/>
<path d="M1540 683 c-6 -32 -15 -75 -20 -95 -6 -27 -4 -38 6 -42 9 -3 15 9 20
41 6 44 7 45 37 39 16 -3 38 -6 49 -6 13 0 18 -5 15 -14 -3 -8 -9 -31 -13 -50
-5 -27 -3 -36 7 -36 10 0 20 29 31 92 9 50 15 95 12 100 -10 16 -24 8 -24 -14
0 -13 -3 -32 -6 -44 -5 -18 -9 -19 -50 -10 -43 10 -44 12 -38 41 10 47 10 47
-3 52 -7 3 -16 -18 -23 -54z"/>
<path d="M1385 718 c-2 -7 -9 -32 -15 -56 -6 -24 -14 -50 -17 -58 -3 -8 1 -14
10 -14 13 0 36 61 42 113 2 22 -13 34 -20 15z"/>
<path d="M1415 700 c-3 -5 3 -10 14 -10 11 0 23 5 26 10 3 6 -3 10 -14 10 -11
0 -23 -4 -26 -10z"/>
<path d="M3059 699 c-38 -14 -55 -59 -37 -96 16 -35 53 -48 91 -34 16 6 26 15
22 21 -4 6 -15 5 -30 -2 -21 -9 -29 -8 -45 7 -35 32 -20 82 26 89 21 3 32 26
12 25 -7 0 -25 -5 -39 -10z"/>
<path d="M2657 693 c-17 -4 -18 -12 -12 -91 8 -93 10 -102 27 -102 7 0 9 15 5
40 -5 36 -3 40 17 40 35 0 66 28 66 60 0 46 -44 68 -103 53z m67 -29 c9 -8 16
-19 16 -23 0 -15 -26 -39 -47 -44 -18 -4 -22 0 -26 32 -2 20 -2 39 0 44 7 12
41 8 57 -9z"/>
<path d="M2270 660 c0 -5 16 -10 35 -10 l35 0 0 -85 c0 -64 3 -85 13 -85 10 0
12 19 9 85 l-5 85 32 0 c17 0 31 5 31 10 0 6 -32 10 -75 10 -43 0 -75 -4 -75
-10z"/>
<path d="M2887 664 c-16 -16 -5 -23 24 -17 45 9 59 -18 17 -32 -40 -13 -57
-39 -42 -62 13 -21 38 -28 62 -17 9 4 25 6 35 5 19 -3 18 11 -7 89 -10 30 -16
35 -46 38 -20 2 -39 0 -43 -4z m69 -100 c-9 -22 -46 -18 -46 6 0 25 43 46 48
23 2 -8 1 -21 -2 -29z"/>
<path d="M2821 643 c-6 -10 -11 -12 -11 -5 0 6 -7 12 -16 12 -9 0 -14 -6 -11
-13 3 -8 8 -39 12 -70 5 -37 12 -57 20 -57 10 0 12 13 8 54 -5 48 -3 55 16 65
12 7 19 16 16 22 -9 14 -23 11 -34 -8z"/>
<path d="M1747 643 c-19 -5 -47 -52 -47 -78 0 -24 46 -65 74 -65 29 0 66 42
66 75 0 43 -49 79 -93 68z m47 -26 c22 -16 18 -75 -6 -91 -42 -26 -77 46 -42
85 20 23 25 23 48 6z"/>
<path d="M1870 560 c0 -81 14 -93 23 -20 7 60 12 70 37 70 24 0 33 -30 25 -80
-6 -33 -4 -40 9 -40 12 0 16 10 16 39 0 55 8 71 36 71 23 0 24 -3 24 -60 0
-60 12 -80 24 -37 11 40 6 94 -9 107 -9 8 -29 10 -50 7 -19 -3 -37 -1 -40 4
-8 12 -55 12 -55 -1 0 -5 -5 -10 -11 -10 -5 0 -7 5 -4 10 3 6 -1 10 -9 10 -13
0 -16 -13 -16 -70z"/>
<path d="M2127 607 c-10 -6 -20 -28 -23 -48 -5 -29 -2 -41 15 -58 22 -22 91
-30 91 -11 0 6 -16 10 -35 10 -23 0 -37 6 -44 19 -14 25 -7 29 43 24 52 -6 59
2 41 45 -11 25 -20 32 -43 32 -15 0 -36 -6 -45 -13z m71 -29 c3 -15 -4 -18
-32 -18 -34 0 -47 15 -29 34 13 13 58 1 61 -16z"/>
<path d="M2436 598 c-36 -51 -8 -118 48 -118 19 0 40 8 49 18 23 25 22 85 -1
105 -27 25 -78 22 -96 -5z m84 -17 c15 -29 12 -49 -10 -71 -37 -37 -81 9 -61
64 13 32 55 36 71 7z"/>
</g>
</svg>
