<?xml version="1.0" standalone="no"?>
<!DOCTYPE svg PUBLIC "-//W3C//DTD SVG 20010904//EN"
 "http://www.w3.org/TR/2001/REC-SVG-20010904/DTD/svg10.dtd">
<svg version="1.0" xmlns="http://www.w3.org/2000/svg"
 width="300.000000pt" height="300.000000pt" viewBox="0 0 300.000000 300.000000"
 preserveAspectRatio="xMidYMid meet">
<metadata>
Created by potrace 1.10, written by Peter Selinger 2001-2011
</metadata>
<g transform="translate(0.000000,300.000000) scale(0.100000,-0.100000)"
fill="#000000" stroke="none">
<path d="M1468 2692 c-1 -5 -149 -122 -328 -261 -179 -139 -340 -268 -357
-287 -38 -38 -43 -85 -18 -135 l16 -29 68 55 c37 30 71 55 75 55 3 0 6 -9 6
-19 0 -14 -8 -21 -27 -23 -24 -3 -28 -7 -25 -30 2 -25 0 -28 -28 -28 -16 0
-30 -3 -30 -7 0 -5 7 -129 15 -278 8 -148 15 -302 16 -341 l2 -72 63 29 c148
67 341 92 429 55 51 -21 103 -71 122 -115 l15 -34 18 40 c22 50 79 97 139 114
100 29 293 -1 422 -66 l49 -25 0 42 c0 24 7 160 15 303 20 364 21 355 -10 355
-21 0 -25 5 -25 30 0 26 -4 30 -28 30 -21 0 -28 5 -28 20 0 11 2 20 5 20 2 0
35 -25 72 -55 l68 -55 16 29 c21 41 19 93 -5 123 -10 14 -149 126 -307 249
-158 122 -316 245 -350 271 -33 27 -63 45 -65 40z m334 -273 c390 -303 388
-302 388 -348 0 -20 -4 -41 -8 -48 -5 -8 -122 77 -355 258 l-347 270 -347
-270 c-232 -180 -350 -266 -355 -258 -17 27 -8 77 20 107 19 21 655 526 679
539 1 1 147 -112 325 -250z m-171 -11 c380 -293 410 -318 384 -318 -3 0 -57
43 -120 96 -67 55 -120 92 -127 88 -6 -4 -8 -3 -5 3 4 6 -1 17 -11 24 -15 13
-16 12 -3 -3 15 -20 2 -25 -17 -6 -7 7 -12 8 -12 2 0 -12 55 -45 63 -38 3 3
58 -38 122 -92 l117 -98 -6 -120 c-3 -67 -8 -186 -12 -266 l-6 -145 -126 0
c-70 0 -141 -4 -159 -8 l-31 -8 15 48 c8 28 16 102 19 180 3 113 7 142 29 195
38 93 51 177 34 213 -31 63 -109 82 -246 58 -49 -9 -76 -8 -130 3 -212 45
-284 -64 -189 -285 21 -48 25 -77 30 -204 3 -103 9 -156 20 -178 l15 -30 -32
8 c-18 4 -89 8 -158 8 l-126 0 -7 200 c-4 110 -4 243 0 295 l7 95 255 198
c141 109 261 196 267 193 6 -2 72 -51 146 -108z m-151 -210 c41 0 110 2 152 4
65 3 81 0 105 -18 26 -20 28 -26 27 -90 0 -53 -8 -87 -32 -144 -28 -69 -31
-87 -35 -215 -5 -157 -20 -218 -54 -223 -23 -3 -25 2 -59 125 -9 34 -25 70
-35 79 -15 13 -16 19 -5 30 8 7 16 49 20 96 4 46 9 90 11 98 4 12 -4 15 -38
15 -23 0 -56 4 -73 8 -30 8 -32 7 -39 -29 -3 -20 -9 -55 -11 -76 -3 -21 -9
-50 -14 -63 -8 -20 -5 -28 17 -45 14 -11 38 -20 54 -20 37 0 60 -10 52 -23 -3
-6 -1 -7 6 -3 13 9 35 -38 51 -111 6 -26 20 -60 31 -75 11 -16 15 -28 9 -28
-18 0 -91 -73 -111 -111 -24 -49 -25 -73 0 -34 10 17 30 41 45 54 17 16 22 27
15 32 -7 4 16 20 52 38 84 41 196 56 310 43 46 -6 85 -10 86 -9 1 1 5 119 10
262 7 244 9 260 27 263 18 4 19 -2 13 -124 -4 -71 -10 -202 -13 -292 -6 -144
-9 -162 -23 -157 -106 41 -320 45 -405 7 -27 -12 -47 -24 -44 -27 3 -3 22 3
44 12 57 26 252 23 354 -4 41 -12 77 -19 79 -17 2 2 10 124 17 271 7 148 13
269 13 271 1 1 8 2 17 2 15 0 16 -10 11 -82 -4 -46 -9 -159 -12 -253 -8 -224
-13 -279 -28 -267 -23 18 -164 60 -242 72 -86 13 -158 8 -214 -16 -45 -19
-106 -77 -122 -117 -12 -27 -13 -28 -26 -12 -7 10 -10 28 -7 39 7 30 -50 112
-95 138 l-37 21 18 36 c10 19 18 46 18 58 0 13 4 23 10 23 13 0 43 -107 37
-130 -3 -10 1 -21 9 -24 15 -6 19 -1 28 36 3 14 22 47 41 72 36 48 41 68 26
109 -8 20 -19 25 -58 30 -61 8 -75 -8 -106 -111 -12 -41 -28 -77 -35 -80 -40
-15 -60 66 -64 250 -2 112 -4 128 -31 186 -34 72 -47 175 -27 211 19 37 66 52
140 45 36 -3 99 -6 140 -6z m-533 -150 c-2 -13 -4 -3 -4 22 0 25 2 35 4 23 2
-13 2 -33 0 -45z m-13 -225 c4 -115 8 -234 9 -265 l2 -58 30 5 c135 20 266 11
349 -25 47 -20 119 -78 111 -90 -2 -4 2 -16 10 -26 27 -36 15 -35 -19 0 -56
60 -115 81 -226 79 -95 -1 -229 -31 -301 -68 l-29 -16 0 32 c0 47 -19 466 -24
527 -4 45 -2 52 13 52 16 0 19 -16 25 -157 3 -87 9 -213 13 -279 l6 -122 31
13 c65 27 197 47 281 43 63 -3 95 -11 136 -31 61 -30 78 -28 28 3 -86 52 -240
65 -381 31 l-77 -18 -5 51 c-3 28 -8 130 -11 226 -3 96 -8 203 -11 238 -6 57
-5 62 14 62 19 0 20 -9 26 -207z m561 117 c-3 -4 3 -6 13 -3 24 6 43 -17 36
-44 -12 -45 -94 -30 -94 17 0 15 2 29 5 31 8 9 45 8 40 -1z m-19 -83 c4 -4 22
-7 41 -7 18 0 33 -3 33 -7 0 -10 -61 -10 -77 0 -7 4 -23 2 -35 -4 -20 -11 -21
-10 -11 3 7 8 11 17 8 20 -3 2 4 4 15 3 11 -1 23 -4 26 -8z m-25 -38 c-13 -11
-26 -17 -29 -14 -7 6 29 34 43 34 6 0 -1 -9 -14 -20z m89 -10 c11 -8 4 -9 -27
-7 -24 2 -43 0 -43 -4 0 -5 17 -9 38 -9 20 -1 29 -3 19 -6 -11 -3 -35 -2 -55
2 -35 6 -36 8 -17 21 22 16 64 18 85 3z m-86 -38 c4 -5 17 -8 31 -6 14 1 28
-2 31 -6 9 -16 -63 -10 -76 6 -8 9 -9 15 -2 15 6 0 13 -4 16 -9z m-17 -109
c-10 -10 -17 -26 -17 -36 0 -9 -4 -14 -10 -11 -24 15 -2 65 29 65 12 0 11 -3
-2 -18z m53 -2 c6 -11 9 -20 8 -20 -2 0 -11 9 -21 20 -9 11 -13 20 -7 20 5 0
14 -9 20 -20z m-24 -32 c-3 -13 -11 -51 -17 -85 -14 -79 -24 -83 -13 -5 4 31
7 69 6 85 -1 18 4 27 15 27 11 0 14 -6 9 -22z m19 -36 c-15 -16 -16 -15 -4 12
7 15 15 23 17 16 3 -7 -3 -19 -13 -28z"/>
<path d="M1214 2299 c-247 -193 -230 -179 -218 -179 8 0 401 304 434 336 43
42 -19 -3 -216 -157z"/>
<path d="M1712 2324 c10 -10 20 -15 24 -12 3 4 -5 12 -18 18 -22 12 -22 12 -6
-6z"/>
<path d="M1987 1868 c-3 -90 -9 -174 -12 -188 -6 -22 -5 -23 5 -7 11 18 28
357 18 357 -3 0 -8 -73 -11 -162z"/>
<path d="M962 1925 c-2 -88 8 -175 20 -175 5 0 6 5 3 11 -4 6 -10 61 -15 122
-6 94 -7 101 -8 42z"/>
<path d="M1968 1851 c-5 -18 -8 -52 -7 -75 l1 -41 9 40 c6 22 9 56 7 75 l-3
35 -7 -34z"/>
<path d="M1427 2159 c-15 -11 -31 -38 -37 -60 -14 -51 2 -88 50 -111 41 -21
152 -26 132 -6 -26 26 -6 115 28 126 11 4 11 0 -3 -16 -25 -28 -34 -94 -14
-110 12 -11 18 -8 34 12 18 22 24 24 59 16 51 -12 67 -12 59 0 -3 6 -26 15
-51 21 -38 10 -44 15 -44 38 0 34 -31 68 -84 92 -54 24 -97 24 -129 -2z m116
-22 c25 -11 37 -40 19 -51 -4 -2 -9 -21 -10 -42 -4 -49 -8 -54 -42 -54 -72 0
-112 50 -90 114 6 20 18 36 26 36 8 0 14 4 14 9 0 11 44 5 83 -12z m80 -71 c4
-11 1 -13 -10 -9 -13 5 -14 3 -4 -15 13 -24 -3 -42 -22 -23 -7 7 -7 18 1 36
13 28 27 32 35 11z"/>
<path d="M1590 2030 c0 -5 5 -10 11 -10 5 0 7 5 4 10 -3 6 -8 10 -11 10 -2 0
-4 -4 -4 -10z"/>
<path d="M1408 1723 c6 -2 18 -2 25 0 6 3 1 5 -13 5 -14 0 -19 -2 -12 -5z"/>
<path d="M1473 1713 c9 -2 23 -2 30 0 6 3 -1 5 -18 5 -16 0 -22 -2 -12 -5z"/>
<path d="M861 2239 c-55 -44 -101 -83 -101 -86 0 -6 0 -6 105 77 91 72 112 90
103 90 -3 0 -51 -36 -107 -81z"/>
<path d="M1343 1190 c-33 -13 -43 -42 -43 -122 0 -86 11 -106 61 -114 29 -5
41 -2 58 15 18 18 21 33 21 105 0 64 -4 88 -16 100 -8 9 -19 16 -24 16 -5 0
-14 2 -22 4 -7 3 -23 1 -35 -4z m37 -115 c0 -50 -4 -85 -10 -85 -6 0 -10 35
-10 85 0 50 4 85 10 85 6 0 10 -35 10 -85z"/>
<path d="M720 1073 l0 -118 57 3 c32 2 64 9 71 14 8 7 12 40 12 99 0 108 -8
119 -86 119 l-54 0 0 -117z m80 2 c0 -41 -4 -77 -10 -80 -6 -4 -10 25 -10 80
0 55 4 84 10 80 6 -3 10 -39 10 -80z"/>
<path d="M880 1073 l0 -118 55 3 c46 3 55 7 55 23 0 14 -7 19 -25 19 -21 0
-25 5 -25 31 0 26 3 29 20 24 16 -5 20 -2 20 19 0 19 -5 26 -20 26 -15 0 -20
7 -20 26 0 21 4 24 20 19 16 -5 20 -2 20 19 0 24 -3 26 -50 26 l-50 0 0 -117z
m42 46 c-3 -29 -1 -40 7 -35 15 10 13 -5 -4 -28 -14 -18 -15 -15 -15 35 0 45
5 69 14 69 1 0 0 -19 -2 -41z"/>
<path d="M1008 1073 l3 -118 26 0 c25 0 25 1 20 53 -3 29 -1 52 4 52 5 0 9 -8
9 -17 0 -10 4 -34 10 -53 8 -28 14 -35 35 -35 l25 0 0 118 0 117 -25 0 c-22 0
-25 -4 -25 -39 0 -22 6 -46 13 -53 14 -16 21 -98 7 -98 -5 0 -12 11 -16 25 -9
35 -30 51 -49 35 -14 -11 -15 -6 -14 41 2 43 4 50 13 35 19 -31 46 -62 42 -46
-3 8 -10 34 -16 58 -9 36 -14 42 -38 42 l-27 0 3 -117z"/>
<path d="M1158 1164 c3 -16 9 -23 18 -20 11 4 14 -14 14 -92 l0 -97 30 0 30 0
0 97 c0 91 1 96 20 91 16 -4 20 0 20 21 0 26 -1 26 -69 26 -68 0 -68 0 -63
-26z m75 -20 c-4 -10 -9 -12 -15 -6 -12 12 -1 35 12 27 5 -3 6 -13 3 -21z m-6
-136 c-3 -8 -6 -5 -6 6 -1 11 2 17 5 13 3 -3 4 -12 1 -19z"/>
<path d="M1550 1072 l0 -117 50 0 c45 0 50 2 50 23 0 15 -6 22 -20 22 -19 0
-20 7 -20 95 l0 95 -30 0 -30 0 0 -118z"/>
<path d="M1660 1075 l0 -115 55 0 c48 0 55 2 55 20 0 15 -7 20 -25 20 -21 0
-25 5 -25 31 0 26 3 29 20 24 16 -5 20 -2 20 19 0 19 -5 26 -20 26 -15 0 -20
7 -20 26 0 21 4 24 20 19 16 -5 20 -2 20 19 0 24 -3 26 -50 26 l-50 0 0 -115z
m40 -19 c-7 -7 -10 12 -9 50 l1 59 9 -50 c5 -30 4 -54 -1 -59z m4 -51 c3 -8 1
-15 -4 -15 -6 0 -10 7 -10 15 0 8 2 15 4 15 2 0 6 -7 10 -15z"/>
<path d="M1790 1080 c-7 -61 -11 -112 -9 -114 2 -2 15 -6 29 -8 21 -2 24 1 22
20 -2 17 2 22 17 22 15 0 20 -6 18 -21 -2 -17 4 -22 26 -23 31 -2 32 4 17 104
-22 142 -16 130 -64 130 l-43 0 -13 -110z m56 66 c8 -9 14 -35 14 -66 0 -36 4
-52 15 -56 8 -4 15 -10 15 -16 0 -5 -12 0 -27 12 -23 18 -27 27 -24 66 1 25
-3 52 -9 60 -16 18 -3 18 16 0z"/>
<path d="M1940 1072 l0 -119 31 5 c30 4 30 6 28 53 -2 27 1 49 7 49 5 0 9 -23
10 -52 1 -48 2 -51 27 -52 26 -2 27 0 27 51 0 37 -4 55 -16 61 -15 8 -15 10 0
15 19 8 22 77 4 95 -7 7 -36 12 -65 12 l-53 0 0 -118z m78 47 c-4 -32 -22 -26
-21 6 2 38 2 40 14 28 6 -6 9 -21 7 -34z m-31 -42 c-6 -20 -26 -19 -24 1 1 12
6 18 14 15 8 -3 12 -10 10 -16z"/>
<path d="M2095 1076 c0 -111 1 -115 23 -119 12 -2 25 -1 27 3 7 11 -6 100 -14
96 -3 -2 -7 22 -8 53 -1 45 1 50 7 27 12 -37 38 -66 56 -59 11 4 14 -5 14 -38
0 -43 -15 -45 -22 -4 -3 20 -16 35 -31 35 -5 0 -5 -6 0 -12 4 -7 13 -33 18
-57 9 -39 13 -44 38 -45 l27 -2 0 118 0 118 -26 0 c-25 0 -26 -2 -22 -50 1
-28 0 -50 -3 -50 -3 0 -11 23 -18 50 -11 44 -16 50 -39 50 l-27 0 0 -114z"/>
<path d="M1460 1050 c0 -16 7 -20 34 -20 25 0 35 5 39 20 4 17 0 20 -34 20
-32 0 -39 -3 -39 -20z"/>
<path d="M700 920 c0 -14 1536 -14 1545 0 4 7 -255 10 -769 10 -511 0 -776 -3
-776 -10z"/>
<path d="M555 880 c-4 -6 6 -10 24 -10 l30 0 4 -72 3 -73 2 73 2 72 30 0 c17
0 30 5 30 10 0 6 -26 10 -59 10 -33 0 -63 -4 -66 -10z"/>
<path d="M697 883 c-12 -11 -8 -155 4 -148 5 4 9 21 7 37 -5 46 17 44 36 -3 9
-23 19 -39 22 -37 2 3 -3 21 -11 41 -8 21 -11 37 -6 37 5 0 13 10 17 22 10 32
-46 74 -69 51z m58 -38 c0 -14 -8 -21 -25 -23 -21 -2 -26 2 -28 23 -2 23 1 26
26 23 19 -2 27 -9 27 -23z"/>
<path d="M841 816 c-19 -42 -31 -79 -28 -82 3 -3 11 11 18 30 11 31 18 36 44
36 27 0 33 -5 45 -37 7 -21 15 -33 17 -27 2 6 -12 43 -30 84 l-33 73 -33 -77z
m48 17 c11 -21 9 -23 -13 -23 -24 0 -25 2 -14 25 6 14 12 24 13 23 1 -2 8 -13
14 -25z"/>
<path d="M973 810 c0 -47 2 -66 4 -42 2 23 2 61 0 85 -2 23 -4 4 -4 -43z"/>
<path d="M1020 809 c0 -53 4 -78 10 -74 7 4 9 30 6 68 l-6 62 55 -60 c30 -33
54 -63 55 -67 0 -5 3 -8 8 -8 4 0 7 34 8 75 0 41 -3 75 -8 75 -4 0 -8 -27 -8
-61 l0 -61 -56 66 c-31 36 -58 66 -60 66 -2 0 -4 -36 -4 -81z"/>
<path d="M1242 810 l2 -85 5 69 6 69 40 -48 c22 -26 48 -57 57 -69 17 -20 17
-18 16 64 -2 84 -2 84 -5 17 l-4 -69 -41 47 c-22 25 -49 56 -59 68 -18 22 -18
20 -17 -63z"/>
<path d="M1444 878 c-22 -10 -44 -47 -44 -73 0 -7 12 -28 26 -45 21 -25 33
-30 58 -28 27 3 31 7 34 36 3 28 0 32 -20 31 -18 -1 -19 -2 -5 -6 12 -3 17
-12 15 -26 -2 -18 -9 -22 -33 -20 -80 6 -73 127 8 127 20 0 33 4 31 8 -7 11
-44 9 -70 -4z"/>
<path d="M1653 878 c-27 -13 -47 -59 -38 -88 15 -47 91 -81 111 -49 4 8 -3 9
-24 4 -24 -5 -35 -2 -51 14 -46 46 -10 129 51 117 18 -3 27 -2 23 4 -8 13 -44
12 -72 -2z"/>
<path d="M1764 876 c-3 -7 -4 -42 -2 -77 l3 -64 43 -3 c25 -2 42 1 42 7 0 6
-18 11 -40 11 -38 0 -40 2 -40 29 0 28 2 29 35 24 23 -4 35 -2 35 6 0 6 -16
11 -35 11 -31 0 -35 3 -35 25 0 23 4 25 40 25 22 0 40 5 40 10 0 16 -80 12
-86 -4z"/>
<path d="M1892 808 l2 -83 5 67 6 67 54 -64 c29 -36 55 -65 57 -65 2 0 3 37 2
83 l-2 82 -5 -68 -6 -69 -57 67 -58 67 2 -84z"/>
<path d="M2040 879 c0 -5 11 -9 25 -9 24 0 25 -2 25 -65 0 -37 4 -65 10 -65 6
0 10 28 10 65 0 63 1 65 25 65 14 0 25 4 25 9 0 6 -27 10 -60 10 -33 0 -60 -5
-60 -10z"/>
<path d="M2174 876 c-3 -7 -4 -42 -2 -77 l3 -64 43 -3 c25 -2 42 1 42 7 0 6
-18 11 -40 11 -38 0 -40 2 -40 30 0 30 1 31 35 24 23 -4 35 -2 35 5 0 6 -16
11 -35 11 -31 0 -35 3 -35 25 0 23 4 25 40 25 22 0 40 5 40 10 0 16 -80 12
-86 -4z"/>
<path d="M2307 883 c-11 -10 -8 -143 3 -143 6 0 10 16 10 35 0 46 13 44 36 -6
10 -23 20 -37 22 -31 2 6 -4 24 -12 40 -14 26 -14 31 -1 36 20 7 19 40 -1 60
-16 16 -46 21 -57 9z m58 -38 c0 -13 -8 -21 -22 -23 -19 -3 -23 1 -23 23 0 22
4 26 23 23 14 -2 22 -10 22 -23z"/>
<path d="M1190 810 c0 -40 4 -70 10 -70 6 0 10 30 10 70 0 40 -4 70 -10 70 -6
0 -10 -30 -10 -70z"/>
<path d="M424 681 c-30 -18 -75 -92 -73 -122 0 -8 10 9 23 36 26 57 41 72 93
91 32 11 34 13 13 14 -14 0 -39 -9 -56 -19z"/>
<path d="M2495 670 c-4 -6 6 -10 24 -10 40 0 88 -42 102 -91 7 -21 16 -39 20
-39 10 0 -9 57 -29 88 -23 36 -105 72 -117 52z"/>
<path d="M521 659 c-74 -16 -111 -56 -111 -121 l0 -32 39 38 38 37 38 -34
c116 -107 325 -192 590 -240 105 -19 155 -22 395 -22 243 1 290 3 404 24 245
43 425 112 540 205 l58 48 39 -38 39 -38 0 27 c0 54 -26 96 -72 117 -24 11
-54 20 -67 20 -24 0 -24 -1 10 -31 l34 -31 -47 -42 c-107 -98 -307 -176 -542
-212 -447 -67 -920 -18 -1199 125 -73 38 -197 125 -197 139 0 3 12 18 27 34
31 33 29 37 -16 27z m-51 -63 c0 -3 -4 -8 -10 -11 -5 -3 -10 -1 -10 4 0 6 5
11 10 11 6 0 10 -2 10 -4z m2070 -11 c11 -13 10 -14 -4 -9 -9 3 -16 10 -16 15
0 13 6 11 20 -6z"/>
<path d="M665 602 c0 -20 -5 -50 -13 -65 -19 -39 -9 -44 17 -9 11 16 34 35 51
42 16 7 30 16 30 21 0 13 -14 11 -36 -6 -29 -22 -34 -18 -34 20 0 19 -3 35 -7
35 -5 0 -8 -17 -8 -38z"/>
<path d="M2290 556 c-15 -19 -9 -56 11 -69 18 -11 69 -2 69 13 0 6 -10 5 -25
-2 -18 -8 -29 -8 -36 -1 -7 7 0 14 20 23 34 14 37 20 19 38 -16 16 -43 15 -58
-2z m45 -5 c6 -11 -33 -36 -42 -27 -7 7 16 36 28 36 4 0 10 -4 14 -9z"/>
<path d="M717 532 c-22 -25 -21 -45 3 -67 40 -37 95 19 63 64 -18 26 -45 27
-66 3z m59 -17 c8 -20 -13 -45 -37 -45 -19 0 -24 16 -13 44 8 20 43 21 50 1z"/>
<path d="M2140 530 c0 -5 5 -10 10 -10 6 0 10 5 10 10 0 6 -4 10 -10 10 -5 0
-10 -4 -10 -10z"/>
<path d="M2215 520 c-25 -28 -10 -74 25 -78 28 -2 58 13 47 24 -3 4 -13 1 -22
-6 -12 -10 -18 -10 -30 0 -22 18 -19 51 5 57 11 3 20 9 20 14 0 16 -27 9 -45
-11z"/>
<path d="M821 495 c-6 -16 -14 -35 -16 -42 -6 -17 24 -45 41 -39 8 3 14 0 14
-6 0 -20 16 4 29 41 7 21 8 38 2 44 -5 5 -12 -4 -16 -23 -7 -34 -30 -49 -47
-32 -7 7 -6 17 2 31 6 12 9 30 7 39 -3 13 -7 9 -16 -13z"/>
<path d="M2087 490 c-3 -11 -1 -20 3 -20 5 0 14 -16 20 -35 8 -24 18 -35 31
-35 10 0 19 5 19 10 0 6 -7 10 -15 10 -20 0 -32 50 -14 61 11 7 10 9 -3 9 -10
0 -18 5 -18 10 0 18 -18 10 -23 -10z"/>
<path d="M2158 505 c-9 -9 22 -96 32 -90 5 3 3 20 -4 38 -8 17 -15 38 -17 45
-3 7 -7 10 -11 7z"/>
<path d="M1021 433 c-14 -69 -14 -73 -1 -73 6 0 10 14 10 30 0 31 7 34 46 24
16 -4 19 -11 16 -36 -3 -19 -1 -29 6 -25 5 4 13 28 17 53 3 26 9 53 12 60 3 8
1 14 -5 14 -6 0 -13 -13 -17 -28 -5 -25 -10 -28 -36 -24 -27 4 -29 7 -24 33 4
16 2 29 -3 29 -5 0 -14 -26 -21 -57z"/>
<path d="M915 451 c-3 -14 -8 -34 -11 -43 -3 -10 -1 -18 5 -18 5 0 12 14 16
31 4 19 15 33 26 36 27 7 24 21 -5 21 -18 0 -26 -7 -31 -27z"/>
<path d="M1778 463 c-20 -5 -21 -17 -12 -87 4 -25 11 -46 17 -46 5 0 7 11 5
25 -4 20 -1 26 18 31 33 8 44 52 19 71 -11 7 -21 12 -24 12 -3 -1 -14 -3 -23
-6z m40 -35 c-5 -34 -38 -37 -38 -4 0 20 5 26 21 26 15 0 20 -5 17 -22z"/>
<path d="M2022 458 c-28 -28 1 -97 35 -84 8 3 19 6 24 6 5 0 9 4 9 8 0 4 -12
8 -27 7 -23 0 -29 5 -31 26 -2 18 3 29 20 37 22 10 22 11 3 11 -12 1 -26 -4
-33 -11z"/>
<path d="M1520 440 c0 -5 9 -10 20 -10 18 0 20 -7 20 -55 0 -33 4 -55 11 -55
7 0 10 20 7 55 -2 46 0 55 14 55 9 0 20 5 23 10 4 6 -13 10 -44 10 -28 0 -51
-4 -51 -10z"/>
<path d="M1927 443 c-15 -14 -6 -23 12 -13 30 15 35 -5 6 -24 -44 -29 -30 -60
23 -50 28 6 31 9 25 38 -3 17 -10 37 -16 44 -10 13 -39 16 -50 5z m53 -52 c0
-5 -6 -14 -14 -20 -16 -13 -32 2 -21 19 8 12 35 13 35 1z"/>
<path d="M1880 430 c0 -5 5 -10 10 -10 6 0 10 5 10 10 0 6 -4 10 -10 10 -5 0
-10 -4 -10 -10z"/>
<path d="M1146 408 c-9 -12 -16 -26 -16 -30 0 -11 38 -48 50 -48 15 0 50 38
50 54 0 20 -28 46 -50 46 -10 0 -26 -10 -34 -22z m54 -3 c16 -20 3 -55 -21
-55 -25 0 -34 22 -19 49 13 25 23 26 40 6z"/>
<path d="M1860 410 c0 -35 11 -70 21 -70 10 0 0 71 -12 85 -5 5 -9 -1 -9 -15z"/>
<path d="M1250 389 c0 -15 -3 -34 -6 -43 -3 -9 -1 -16 5 -16 6 0 11 13 11 29
0 34 24 59 36 39 5 -7 7 -27 5 -45 -1 -18 2 -33 8 -33 5 0 11 17 13 37 2 27 8
39 21 41 14 3 17 -4 17 -37 0 -23 5 -41 10 -41 15 0 12 77 -2 87 -7 4 -37 8
-65 9 -52 1 -53 0 -53 -27z"/>
<path d="M1417 402 c-20 -22 -22 -53 -5 -70 14 -14 68 -16 68 -3 0 6 -12 9
-26 8 -15 -1 -29 4 -31 11 -3 8 6 12 26 12 23 0 31 5 31 18 0 20 -18 42 -35
42 -7 0 -19 -8 -28 -18z m48 -12 c4 -6 -5 -10 -20 -10 -15 0 -24 4 -20 10 3 6
12 10 20 10 8 0 17 -4 20 -10z"/>
<path d="M1629 401 c-20 -16 -22 -23 -14 -47 11 -32 46 -44 71 -24 21 18 18
67 -5 80 -25 13 -25 13 -52 -9z m46 -36 c0 -39 -31 -48 -41 -11 -7 30 2 48 24
44 11 -2 17 -13 17 -33z"/>
</g>
</svg>
