<?xml version="1.0" standalone="no"?>
<!DOCTYPE svg PUBLIC "-//W3C//DTD SVG 20010904//EN"
 "http://www.w3.org/TR/2001/REC-SVG-20010904/DTD/svg10.dtd">
<svg version="1.0" xmlns="http://www.w3.org/2000/svg"
 width="900.000000pt" height="900.000000pt" viewBox="0 0 900.000000 900.000000"
 preserveAspectRatio="xMidYMid meet">
<metadata>
Created by potrace 1.10, written by Peter Selinger 2001-2011
</metadata>
<g transform="translate(0.000000,900.000000) scale(0.100000,-0.100000)"
fill="#ffffff" stroke="none">
<path d="M4398 8051 c-3 -9 -106 -91 -403 -321 -82 -63 -194 -151 -250 -195
-98 -77 -232 -181 -379 -294 -39 -30 -120 -93 -181 -141 -161 -126 -286 -223
-409 -318 -61 -47 -121 -95 -135 -108 -14 -13 -29 -24 -33 -24 -3 0 -13 -6
-20 -13 -7 -7 -49 -40 -93 -74 -152 -115 -188 -152 -222 -222 -54 -111 -38
-262 36 -351 30 -36 49 -36 91 3 14 12 84 67 155 122 72 54 141 109 155 122
14 13 34 22 45 21 17 -3 20 -11 20 -58 l0 -55 -70 -9 c-38 -5 -73 -14 -77 -20
-4 -6 -8 -44 -8 -83 l0 -73 -47 -2 c-27 0 -52 -2 -58 -3 -5 -2 -20 -3 -32 -4
-28 -1 -28 -15 -13 -256 16 -259 31 -546 40 -750 4 -104 13 -273 19 -375 6
-102 15 -293 21 -424 5 -132 14 -244 20 -250 6 -6 28 -1 62 16 262 127 599
229 854 258 238 27 450 -1 607 -81 143 -72 232 -166 321 -342 23 -44 33 -47
42 -9 19 74 135 227 224 294 160 120 403 168 698 138 171 -17 456 -88 589
-146 17 -8 35 -14 40 -14 11 0 182 -73 236 -101 54 -27 67 -25 68 14 4 169 38
831 54 1077 9 118 15 258 15 310 0 52 5 138 10 190 5 52 12 174 16 272 l7 176
-69 7 c-100 9 -95 4 -93 90 1 42 0 77 -2 79 -2 2 -34 6 -71 9 -37 3 -72 8 -79
12 -12 8 -4 94 12 109 6 6 21 -1 41 -20 18 -17 80 -66 138 -109 58 -43 128
-98 156 -122 28 -24 58 -43 67 -43 20 0 69 64 90 118 23 58 23 189 0 239 -16
35 -68 111 -84 123 -4 3 -24 19 -45 37 -50 41 -192 153 -220 173 -41 29 -289
221 -314 243 -14 13 -81 65 -150 117 -69 52 -127 97 -130 100 -3 4 -63 51
-135 106 -71 54 -136 105 -144 112 -8 8 -66 54 -130 102 -212 162 -366 281
-388 300 -12 11 -80 63 -150 117 -70 53 -130 100 -133 103 -3 3 -35 29 -71 58
-62 48 -103 64 -111 43z m81 -88 c20 -15 41 -32 47 -38 7 -5 56 -44 110 -85
53 -41 152 -118 219 -170 67 -52 157 -122 199 -155 43 -33 104 -80 135 -105
55 -43 116 -90 381 -295 64 -49 177 -137 250 -195 170 -133 396 -309 525 -407
199 -151 220 -182 220 -318 0 -77 -3 -95 -23 -127 -13 -21 -27 -38 -31 -38
-10 0 -190 136 -479 363 -119 93 -166 130 -314 244 -197 153 -391 303 -538
418 -74 58 -197 153 -274 211 -76 58 -146 114 -156 123 -9 9 -59 48 -109 86
-51 39 -115 89 -144 113 -28 23 -57 42 -64 42 -12 0 -140 -97 -457 -344 -50
-38 -125 -96 -166 -129 -41 -32 -82 -63 -90 -70 -14 -11 -138 -107 -215 -167
-18 -14 -70 -54 -116 -89 -46 -36 -124 -97 -174 -136 -49 -39 -137 -107 -194
-151 -57 -43 -108 -84 -115 -89 -9 -9 -90 -72 -211 -165 -18 -14 -87 -68 -154
-120 -147 -115 -181 -140 -192 -140 -5 0 -18 19 -31 43 -17 33 -22 59 -22 122
0 128 31 174 206 309 62 47 172 132 244 189 73 56 185 143 250 192 65 50 125
97 134 105 8 9 72 58 140 110 69 51 130 99 135 105 6 6 73 59 150 118 301 230
390 300 395 306 3 4 68 55 145 114 77 59 181 138 230 177 50 38 96 70 104 70
8 0 30 -12 50 -27z m28 -451 c32 -26 114 -90 183 -142 69 -52 136 -105 150
-117 25 -22 106 -84 372 -287 79 -61 145 -113 148 -116 3 -3 59 -48 125 -99
66 -50 135 -104 154 -119 34 -27 148 -116 319 -247 l90 -70 -2 -195 c-2 -107
-8 -337 -15 -510 -6 -173 -16 -452 -22 -620 -11 -324 -16 -400 -24 -409 -3 -3
-31 1 -63 9 -36 8 -146 15 -302 17 -269 5 -332 -1 -548 -57 -41 -10 -49 2 -29
43 20 42 42 122 63 232 13 72 18 161 20 437 l3 348 26 57 c15 32 34 74 42 93
9 19 20 42 24 52 10 21 77 228 94 293 38 141 35 313 -7 391 -41 76 -154 134
-308 159 -89 15 -224 6 -280 -17 -115 -49 -481 -47 -570 3 -18 10 -70 13 -190
14 -173 0 -181 -2 -288 -54 -91 -44 -162 -183 -162 -316 0 -60 19 -180 36
-230 8 -23 14 -48 14 -57 0 -10 6 -32 14 -50 8 -18 24 -58 36 -88 12 -30 40
-92 62 -136 l39 -82 3 -243 c5 -398 32 -670 79 -786 11 -29 18 -56 14 -59 -4
-4 -33 0 -64 9 -134 37 -187 42 -448 42 -184 0 -281 -4 -333 -14 -58 -11 -75
-12 -81 -2 -4 6 -11 137 -15 289 -3 152 -11 347 -16 432 -5 85 -10 274 -10
420 0 146 -4 294 -9 330 -5 36 -11 108 -13 160 -2 79 -1 95 12 95 11 0 17 -16
21 -55 l6 -55 0 69 c0 83 -13 69 238 260 72 55 132 102 135 106 3 3 64 50 135
105 72 54 132 101 135 105 3 3 64 50 135 105 72 54 132 101 135 105 3 3 64 50
135 105 72 54 132 101 135 105 3 3 68 54 145 113 77 59 160 123 184 142 24 19
52 35 62 35 10 0 44 -22 76 -48z m-357 -907 c155 -48 278 -55 447 -27 67 12
133 26 145 33 15 8 70 13 158 13 117 0 143 -3 195 -23 89 -33 139 -66 177
-113 l33 -42 -1 -141 c-1 -82 -6 -152 -13 -170 -7 -16 -16 -48 -21 -70 -8 -37
-14 -56 -45 -145 -32 -87 -95 -236 -118 -275 -8 -14 -12 -123 -13 -351 -2
-404 -21 -561 -85 -700 -23 -51 -46 -72 -87 -80 -28 -6 -36 -2 -65 30 -19 20
-41 60 -50 89 -32 107 -47 164 -47 184 0 11 -6 39 -14 64 -7 24 -21 71 -31
104 -10 33 -25 67 -32 76 -7 8 -13 20 -13 25 0 5 -20 32 -45 59 -45 49 -47 60
-10 67 28 5 43 68 46 191 2 56 8 113 15 127 13 29 36 305 28 336 -7 25 27 54
63 54 29 0 92 56 110 98 l13 33 68 -7 c37 -4 93 -17 124 -30 62 -26 76 -28 96
-16 21 14 2 41 -37 51 -20 6 -57 15 -84 22 -26 6 -50 16 -53 20 -3 5 -23 13
-44 19 -37 10 -47 23 -41 54 1 6 -1 32 -4 59 -6 40 -15 57 -46 87 -22 20 -39
42 -39 47 0 23 -179 127 -249 145 -20 5 -54 14 -76 19 -22 6 -65 9 -96 6 -155
-13 -254 -146 -254 -343 0 -87 2 -94 33 -140 33 -49 99 -104 135 -114 28 -8
25 -25 -5 -28 -29 -3 -32 -11 -41 -82 -3 -19 -12 -77 -21 -129 -9 -52 -14
-101 -11 -109 2 -7 -1 -25 -9 -40 -8 -15 -14 -44 -13 -64 0 -21 -6 -45 -15
-55 -8 -10 -18 -44 -22 -75 -5 -51 -4 -59 18 -80 13 -13 31 -35 41 -50 17 -27
17 -28 -11 -38 -43 -17 -15 -33 49 -28 47 2 57 0 61 -14 3 -16 17 -18 93 -18
55 0 94 -5 101 -12 9 -9 17 -9 36 2 23 12 27 11 45 -11 44 -54 86 -171 111
-304 24 -131 62 -233 108 -285 l33 -39 -72 -47 c-85 -54 -200 -165 -179 -172
8 -3 16 0 18 7 5 14 32 15 32 1 0 -5 -7 -10 -15 -10 -8 0 -15 -7 -15 -15 0
-18 -27 -20 -33 -2 -2 6 -8 9 -12 4 -5 -4 -4 -12 2 -18 15 -15 5 -39 -13 -32
-8 3 -14 -1 -14 -10 0 -23 18 -30 33 -15 8 7 28 24 46 38 18 14 39 31 46 38 8
6 16 12 19 12 3 0 25 14 49 30 25 17 51 30 59 30 7 0 22 6 33 13 24 16 113 42
213 62 100 20 408 20 539 0 201 -32 424 -85 512 -122 19 -8 38 -10 42 -6 10
10 55 870 75 1432 3 91 10 173 15 183 8 15 20 18 52 16 l42 -3 0 -125 c-1
-115 -8 -277 -36 -825 -5 -110 -14 -314 -19 -454 -10 -300 -18 -381 -35 -387
-12 -5 -58 11 -152 52 -17 8 -36 14 -42 14 -6 0 -19 4 -29 10 -18 10 -85 35
-137 50 -75 22 -148 41 -275 71 -135 32 -417 47 -540 29 -178 -25 -320 -87
-430 -187 -76 -68 -164 -198 -194 -286 -10 -31 -35 -9 -61 53 -15 38 -97 157
-133 195 -121 125 -256 192 -449 221 -276 41 -637 -15 -1003 -156 -30 -12 -67
-25 -81 -30 -14 -4 -35 -13 -47 -19 -12 -6 -31 -16 -42 -21 -12 -6 -24 -8 -29
-6 -4 3 -11 54 -14 113 -38 709 -63 1277 -69 1563 l-3 125 50 0 50 0 6 -135
c7 -147 21 -442 44 -925 8 -170 16 -364 16 -431 1 -67 4 -127 9 -133 7 -13 33
-7 150 34 66 23 204 54 360 81 146 26 491 30 600 8 196 -39 344 -111 450 -216
32 -32 44 -38 53 -29 9 9 7 13 -11 17 -25 7 -27 15 -10 32 6 6 8 15 3 19 -4 5
-10 2 -12 -4 -6 -18 -33 -16 -33 2 0 8 7 15 15 15 24 0 18 13 -35 72 -60 68
-150 137 -217 167 -13 6 -23 17 -23 25 0 8 10 27 23 43 12 15 28 39 35 52 15
25 49 158 54 206 2 22 9 31 25 33 17 3 26 -5 39 -35 53 -117 84 -234 87 -328
2 -51 7 -71 18 -73 11 -2 14 14 14 86 0 51 5 95 11 103 7 8 14 51 16 97 3 48
10 88 17 95 11 10 12 -6 9 -82 -3 -61 -9 -96 -16 -99 -13 -4 -17 -142 -4 -142
4 0 18 24 31 53 40 86 129 213 183 262 l51 45 -7 63 c-10 101 -30 195 -44 209
-7 7 -51 15 -103 19 -50 4 -96 12 -102 18 -6 6 -32 11 -57 11 -40 0 -49 -4
-71 -32 -70 -93 -101 -173 -145 -373 -21 -92 -46 -154 -71 -177 -107 -96 -202
98 -218 442 -3 69 -10 186 -15 260 -12 181 -12 337 0 360 8 15 -1 43 -43 132
-29 62 -61 133 -71 158 -10 25 -24 60 -32 78 -8 18 -14 42 -14 53 0 11 -5 30
-11 41 -6 12 -17 66 -25 122 -21 159 5 274 78 345 45 44 131 83 203 92 81 10
259 1 315 -16z m695 -414 c3 -5 1 -13 -5 -16 -15 -9 -43 3 -35 15 8 13 32 13
40 1z m-2070 -133 c4 -15 30 -657 45 -1130 6 -180 14 -350 17 -378 6 -50 7
-52 32 -46 61 14 345 38 456 38 134 0 294 -15 400 -38 97 -21 257 -72 272 -87
3 -4 31 -19 60 -32 29 -14 53 -30 53 -35 0 -6 6 -10 13 -10 7 0 27 -13 45 -30
18 -16 37 -30 43 -30 5 0 9 -7 9 -15 0 -8 7 -15 15 -15 8 0 15 -7 15 -15 0
-23 -13 -18 -40 15 -14 16 -31 29 -37 30 -7 0 -13 4 -13 9 0 6 -11 16 -24 23
-35 18 -108 54 -126 62 -8 3 -22 10 -30 15 -14 8 -57 21 -170 51 -65 18 -467
25 -560 10 -41 -6 -100 -15 -130 -20 -80 -12 -247 -52 -318 -77 -71 -25 -62
-79 -93 572 -6 132 -15 348 -19 480 -5 132 -14 329 -21 437 -10 161 -10 199 0
212 16 20 100 22 106 4z m3422 1 c14 -14 6 -265 -38 -1144 -5 -115 -13 -290
-16 -388 -3 -98 -10 -180 -16 -184 -5 -3 -33 2 -63 11 -89 27 -155 44 -234 60
-41 8 -100 20 -130 27 -80 17 -500 24 -575 9 -33 -7 -82 -16 -109 -21 -27 -4
-54 -13 -60 -19 -5 -5 -22 -10 -37 -10 -15 0 -32 -7 -39 -15 -7 -8 -18 -15
-25 -15 -6 0 -32 -11 -56 -25 -24 -14 -52 -28 -61 -31 -9 -3 -19 -12 -22 -20
-6 -16 -36 -19 -36 -5 0 5 9 12 19 16 11 3 22 12 25 20 3 8 12 15 20 15 7 0
16 7 20 15 3 8 14 15 25 15 10 0 21 7 25 15 3 8 14 15 24 15 11 0 25 7 32 15
7 8 22 15 34 15 12 0 27 5 33 11 6 6 26 14 44 19 19 4 48 13 64 18 111 38 324
64 515 63 110 0 360 -21 446 -37 l31 -6 6 99 c4 54 7 172 7 263 0 91 5 248 10
350 6 102 14 332 19 511 4 179 11 331 15 337 9 15 88 16 103 1z m-1399 -21
c-3 -7 -11 -13 -18 -13 -7 0 -15 6 -17 13 -3 7 4 12 17 12 13 0 20 -5 18 -12z
m-370 -875 c-16 -2 -40 -2 -55 0 -16 2 -3 4 27 4 30 0 43 -2 28 -4z m-40 -235
c16 -16 15 -53 -2 -67 -8 -7 -18 -26 -21 -42 -7 -31 -25 -31 -25 1 0 10 -8 32
-17 48 -17 29 -17 31 1 51 21 24 46 27 64 9z"/>
<path d="M2883 5650 c0 -41 2 -58 4 -37 2 20 2 54 0 75 -2 20 -4 3 -4 -38z"/>
<path d="M5942 5130 c0 -19 2 -27 5 -17 2 9 2 25 0 35 -3 9 -5 1 -5 -18z"/>
<path d="M4022 3561 c-38 -10 -86 -52 -110 -96 -14 -25 -16 -66 -16 -250 -1
-239 4 -263 58 -314 70 -66 227 -67 299 -3 10 9 28 36 38 60 19 40 20 61 17
265 -4 246 -8 261 -73 311 -27 21 -48 27 -107 31 -40 2 -88 0 -106 -4z m103
-351 l0 -245 -25 0 -25 0 -3 225 c-3 255 -1 273 31 268 l22 -3 0 -245z"/>
<path d="M2158 3554 c-11 -10 -10 -666 1 -683 7 -11 39 -13 167 -9 96 3 168 9
181 17 13 6 31 26 40 44 16 28 18 62 18 282 0 246 0 251 -23 283 -41 57 -71
66 -232 70 -80 2 -148 0 -152 -4z m220 -116 c9 -9 12 -72 12 -222 0 -181 -2
-212 -17 -228 -40 -45 -43 -30 -43 215 0 129 3 237 7 240 10 11 28 8 41 -5z"/>
<path d="M2647 3554 c-4 -4 -7 -159 -7 -345 l0 -337 23 -6 c29 -8 235 -7 265
0 21 6 23 11 20 63 l-3 56 -55 3 c-30 2 -60 8 -67 14 -17 14 -18 134 0 145 6
4 32 10 57 13 43 5 45 7 48 39 2 19 1 44 -2 57 -6 21 -13 24 -49 24 -24 0 -48
5 -55 12 -7 7 -12 36 -12 65 0 61 13 73 80 73 l41 0 -3 63 -3 62 -136 3 c-74
1 -138 -1 -142 -4z"/>
<path d="M3020 3548 c-3 -169 1 -671 5 -678 7 -11 77 -13 113 -4 21 6 22 11
22 113 0 58 4 112 9 120 12 18 31 5 31 -22 0 -22 18 -85 49 -167 l17 -45 69 0
70 0 0 345 0 345 -67 3 c-50 2 -68 0 -69 -10 0 -7 0 -54 1 -104 1 -50 -2 -103
-6 -118 -6 -27 -22 -35 -28 -13 -2 6 -18 59 -36 117 -18 58 -34 111 -36 118
-2 8 -26 12 -74 12 -49 0 -70 -4 -70 -12z"/>
<path d="M3464 3546 c-3 -7 -4 -35 -2 -62 l3 -49 45 -5 45 -5 3 -269 c1 -183
6 -274 14 -283 8 -10 32 -13 87 -11 l76 3 3 269 c1 171 6 274 13 282 6 7 29
14 52 16 l42 3 0 60 0 60 -188 3 c-153 2 -188 0 -193 -12z"/>
<path d="M4646 3552 c-3 -4 -4 -158 -3 -341 2 -282 4 -333 17 -341 16 -11 211
-13 248 -4 20 6 22 13 22 65 l0 58 -52 3 -53 3 -5 280 -5 280 -82 3 c-45 1
-84 -1 -87 -6z"/>
<path d="M4987 3554 c-4 -4 -7 -159 -7 -345 l0 -338 34 -6 c54 -11 264 -1 277
12 8 8 9 26 3 60 l-9 48 -55 3 c-30 2 -60 8 -67 14 -17 14 -18 134 0 145 6 4
32 10 57 13 l45 5 0 55 0 55 -35 3 c-79 6 -80 7 -80 72 0 67 5 72 70 80 l45 5
0 60 0 60 -136 3 c-74 1 -138 -1 -142 -4z"/>
<path d="M5414 3553 c-7 -5 -15 -35 -18 -68 -4 -33 -14 -109 -22 -170 -58
-422 -60 -441 -39 -449 29 -11 131 -6 143 6 7 7 12 30 12 53 0 48 13 65 52 65
33 0 48 -24 48 -79 0 -48 13 -54 101 -49 l54 3 3 45 c2 25 -4 88 -13 140 -20
122 -44 272 -74 465 l-6 40 -115 3 c-63 1 -120 -1 -126 -5z m137 -250 c7 -21
13 -74 13 -118 l1 -80 -30 0 -30 0 3 85 c4 151 18 186 43 113z"/>
<path d="M5815 3549 c-3 -8 -4 -165 -3 -349 l3 -335 62 -3 c103 -5 103 -6 103
164 0 125 2 145 16 151 34 13 44 -24 44 -163 0 -101 3 -134 14 -143 9 -7 40
-11 78 -9 l63 3 3 147 3 147 -35 27 -35 28 35 38 c33 37 34 41 34 119 0 90
-17 132 -68 165 -36 24 -308 35 -317 13z m209 -115 c11 -10 16 -34 16 -68 0
-58 -18 -93 -44 -83 -13 5 -16 21 -16 80 0 90 10 106 44 71z"/>
<path d="M6287 3554 c-4 -4 -7 -156 -7 -339 0 -244 3 -334 12 -343 14 -14 96
-16 116 -3 10 6 14 40 14 129 1 116 1 120 20 109 10 -7 21 -23 24 -37 3 -14
14 -54 25 -89 10 -35 19 -70 19 -76 0 -7 8 -19 18 -28 23 -21 124 -23 141 -3
8 9 11 109 9 347 l-3 334 -70 0 -70 0 -5 -130 c-5 -126 -17 -162 -32 -98 -3
15 -11 42 -17 58 -6 17 -21 62 -34 100 l-23 70 -65 3 c-36 2 -68 0 -72 -4z"/>
<path d="M4374 3186 c-3 -7 -4 -31 -2 -52 l3 -39 102 -3 c101 -3 103 -2 109
21 3 14 4 38 2 53 l-3 29 -103 3 c-81 2 -103 0 -108 -12z"/>
<path d="M1403 2073 c15 -2 37 -2 50 0 12 2 0 4 -28 4 -27 0 -38 -2 -22 -4z"/>
<path d="M1500 1950 c-192 -54 -280 -161 -280 -340 0 -43 4 -81 9 -84 4 -3 54
42 110 99 57 58 107 105 112 105 5 0 40 -28 77 -62 128 -119 205 -174 432
-308 74 -44 345 -170 364 -170 8 0 17 -4 21 -9 3 -5 20 -13 37 -17 18 -3 39
-10 48 -15 17 -10 90 -36 135 -49 17 -4 44 -13 60 -18 17 -6 55 -18 85 -26 30
-9 77 -23 103 -31 26 -8 55 -15 64 -15 9 0 39 -6 67 -14 149 -42 451 -95 686
-120 302 -33 401 -39 760 -43 236 -3 440 -1 550 7 432 29 468 32 660 61 36 6
97 14 135 19 39 6 90 14 115 20 62 13 146 30 200 39 25 4 65 13 90 20 25 7 72
19 105 28 67 17 144 39 190 55 17 5 47 14 68 19 21 5 45 13 55 19 9 5 44 18
77 29 281 92 609 280 813 465 40 36 76 66 81 66 5 0 49 -43 99 -96 50 -53 95
-93 101 -90 32 20 19 171 -21 248 -41 78 -153 154 -253 172 -22 3 -59 10 -82
15 -73 14 -71 -1 11 -86 44 -47 76 -89 76 -101 0 -35 -293 -269 -391 -312 -13
-6 -37 -19 -54 -29 -16 -11 -64 -36 -105 -56 -114 -55 -149 -71 -250 -110 -25
-9 -56 -22 -70 -27 -85 -33 -288 -95 -355 -108 -22 -4 -53 -12 -70 -18 -48
-17 -202 -51 -300 -68 -363 -61 -612 -88 -970 -104 -484 -22 -1073 1 -1415 56
-363 58 -523 91 -720 148 -134 40 -168 50 -197 63 -17 7 -40 13 -51 13 -11 0
-25 7 -32 15 -7 8 -21 15 -31 15 -10 0 -35 7 -56 16 -21 9 -47 20 -58 25 -11
4 -45 18 -75 30 -30 12 -62 28 -71 36 -8 7 -20 13 -25 13 -6 0 -44 17 -85 38
-63 32 -105 57 -234 135 -120 74 -341 264 -333 287 2 5 33 40 71 79 37 39 67
75 67 81 0 15 -77 10 -150 -10z"/>
<path d="M2005 1891 c-3 -5 -8 -60 -12 -121 -6 -104 -8 -114 -43 -174 -23 -38
-34 -69 -30 -76 13 -21 37 -4 61 46 25 50 65 87 126 119 75 39 113 66 113 80
0 25 -28 17 -99 -30 -38 -25 -73 -45 -80 -45 -7 0 -11 32 -11 99 0 91 -9 127
-25 102z"/>
<path d="M6871 1659 c-33 -33 -41 -48 -41 -78 0 -40 31 -106 63 -133 27 -24
142 -26 151 -3 3 8 12 15 20 15 13 0 36 28 36 44 0 13 -25 4 -56 -19 -40 -31
-103 -34 -127 -7 -29 32 -24 38 78 93 63 34 68 56 20 98 -52 45 -91 43 -144
-10z m106 -10 l34 -21 -22 -24 c-12 -13 -30 -24 -40 -24 -9 0 -22 -7 -29 -15
-18 -21 -47 -19 -55 5 -11 33 34 99 69 100 5 0 24 -10 43 -21z"/>
<path d="M2173 1610 c-38 -23 -73 -86 -73 -132 0 -66 64 -128 132 -128 74 0
132 69 132 156 0 60 -18 87 -73 110 -46 19 -80 18 -118 -6z m135 -46 c12 -14
22 -36 22 -50 0 -43 -36 -100 -75 -118 -34 -16 -37 -16 -67 1 -58 33 -58 113
0 170 29 30 39 34 66 29 17 -3 41 -17 54 -32z"/>
<path d="M6683 1584 c-46 -20 -86 -76 -86 -122 0 -49 34 -113 71 -134 33 -20
107 -24 117 -7 4 5 18 15 32 20 21 8 23 12 13 24 -11 13 -16 13 -41 0 -42 -22
-75 -18 -109 13 -22 19 -33 39 -36 67 -6 52 12 86 59 108 20 9 37 24 37 32 0
18 -15 18 -57 -1z"/>
<path d="M6427 1584 c-16 -16 -6 -35 16 -32 12 2 22 10 22 18 0 16 -26 25 -38
14z"/>
<path d="M2460 1488 c-6 -18 -18 -49 -25 -68 -22 -58 -26 -99 -11 -134 11 -26
22 -35 49 -40 20 -4 47 -4 61 0 19 4 27 1 36 -16 10 -20 14 -20 26 -8 12 12
76 177 87 223 1 5 -8 11 -20 13 -17 3 -24 -4 -32 -30 -37 -122 -61 -158 -106
-158 -70 0 -82 34 -49 132 39 112 40 118 16 118 -13 0 -24 -11 -32 -32z"/>
<path d="M6267 1504 c-3 -4 -4 -18 -1 -33 4 -18 0 -32 -10 -40 -18 -15 -12
-31 12 -31 16 0 52 -68 52 -99 0 -8 10 -34 22 -58 23 -45 50 -60 87 -48 30 9
26 33 -6 37 -22 2 -33 13 -50 48 -11 25 -24 66 -28 92 -7 45 -6 48 19 58 34
12 25 30 -15 30 -22 0 -32 6 -39 25 -9 24 -29 32 -43 19z"/>
<path d="M6455 1480 c-4 -7 -2 -17 4 -23 6 -6 11 -19 11 -29 0 -9 6 -32 14
-50 8 -18 24 -59 37 -91 19 -51 24 -57 36 -44 16 16 14 28 -34 162 -28 77 -51
102 -68 75z"/>
<path d="M3092 1448 c-7 -7 -12 -23 -12 -37 0 -15 -6 -55 -14 -91 -8 -36 -21
-96 -29 -134 -8 -38 -13 -76 -10 -83 14 -36 53 20 53 75 0 52 15 72 56 72 47
0 144 -28 144 -42 0 -6 -5 -39 -12 -73 -6 -35 -8 -70 -4 -80 11 -30 34 1 46
63 6 31 17 89 25 127 21 101 23 160 6 160 -9 0 -21 -24 -31 -63 -10 -35 -22
-67 -26 -72 -8 -8 -55 -1 -139 19 -32 7 -35 20 -24 125 4 40 -8 55 -29 34z"/>
<path d="M2771 1421 c-7 -5 -17 -26 -21 -47 -4 -22 -15 -66 -25 -99 -23 -80
-23 -99 -3 -103 12 -2 19 5 24 25 15 63 42 134 58 152 10 11 32 21 50 23 19 2
31 8 31 18 0 11 -9 14 -34 12 -19 -1 -41 4 -50 12 -10 9 -22 12 -30 7z"/>
<path d="M6093 1379 c-77 -48 -94 -142 -39 -214 31 -40 73 -51 143 -39 73 14
67 34 -10 31 -74 -2 -97 11 -114 68 -22 69 16 129 90 144 40 8 38 26 -3 28
-21 1 -48 -6 -67 -18z"/>
<path d="M5315 1372 c-49 -8 -52 -20 -35 -136 7 -44 14 -108 17 -141 6 -85 11
-105 29 -105 22 0 25 19 15 75 -12 65 -2 82 54 91 25 3 56 15 69 25 52 41 58
125 13 167 -25 23 -98 34 -162 24z m129 -54 c22 -31 20 -80 -4 -106 -19 -20
-31 -23 -87 -26 -14 -1 -20 13 -29 66 -13 81 -8 88 57 88 38 0 51 -5 63 -22z"/>
<path d="M5791 1318 c-31 -14 -40 -23 -32 -31 7 -7 18 -7 36 1 38 17 69 15 89
-7 24 -27 6 -61 -32 -61 -18 0 -40 -11 -60 -31 -43 -43 -44 -87 -1 -123 37
-31 53 -32 86 -6 16 12 41 20 65 20 34 0 39 3 33 18 -4 9 -11 44 -16 78 -12
82 -32 126 -67 147 -37 21 -46 21 -101 -5z m119 -133 c20 -24 4 -80 -26 -93
-37 -18 -52 -15 -70 13 -14 21 -15 31 -5 51 18 39 78 57 101 29z"/>
<path d="M4573 1323 c-7 -2 -13 -11 -13 -18 0 -10 16 -15 53 -17 l52 -3 5
-165 c5 -157 6 -165 25 -165 19 0 20 5 16 162 l-3 161 38 11 c21 6 40 8 43 6
6 -6 31 15 31 26 0 9 -225 11 -247 2z"/>
<path d="M5645 1285 c-20 -19 -31 -23 -38 -16 -21 21 -37 12 -37 -21 -1 -60
34 -228 47 -228 20 0 22 12 12 97 -10 90 -2 128 30 138 23 7 36 34 22 48 -6 6
-19 0 -36 -18z"/>
<path d="M3462 1251 c-39 -29 -44 -36 -56 -93 -14 -63 28 -148 74 -148 9 0 21
-5 27 -11 16 -16 98 13 123 43 23 28 35 95 26 143 -5 26 -18 44 -48 65 -53 39
-93 39 -146 1z m129 -33 c36 -40 39 -94 8 -144 -35 -58 -105 -58 -139 -1 -24
39 -25 68 -4 109 38 73 88 86 135 36z"/>
<path d="M3747 1243 c-3 -4 -6 -64 -8 -133 -3 -106 -2 -125 11 -125 11 0 16
14 17 55 4 88 12 117 39 150 31 37 47 38 81 4 25 -25 25 -28 19 -119 -7 -96 0
-119 29 -95 11 9 15 34 15 86 0 40 5 84 11 98 22 46 99 43 114 -5 4 -12 4 -61
0 -110 -7 -85 -6 -89 13 -89 23 0 26 10 36 122 12 117 -51 178 -138 133 -28
-15 -31 -14 -66 10 -42 29 -67 31 -98 10 -19 -14 -24 -14 -46 0 -13 9 -26 12
-29 8z"/>
<path d="M4243 1198 c-32 -36 -43 -63 -43 -112 0 -92 50 -139 141 -134 70 4
80 28 12 28 -71 0 -127 47 -104 88 8 14 24 17 93 17 80 0 83 1 86 24 5 34 -4
63 -28 89 -30 32 -127 32 -157 0z m133 -26 c18 -23 17 -49 -1 -59 -8 -5 -38
-6 -67 -3 -44 4 -53 8 -56 26 -5 32 44 67 82 60 16 -3 35 -14 42 -24z"/>
<path d="M4878 1198 c-48 -45 -60 -107 -33 -171 22 -53 58 -77 118 -77 44 0
53 4 88 39 35 35 39 44 39 90 0 55 -10 82 -43 119 -17 18 -31 22 -82 22 -50 0
-67 -4 -87 -22z m134 -25 c65 -57 32 -193 -47 -193 -54 0 -85 41 -85 110 1 95
69 138 132 83z"/>
</g>
</svg>
